<?xml version="1.0" encoding="UTF-8"?>
<svg id="visual" width="224" height="600" version="1.1" viewBox="0 0 224 600" xmlns="http://www.w3.org/2000/svg">
			<path id="path1" d="m81.84 600-9.519-14.3c-9.519-14.4-28.56-43-19.67-71.5 8.885-28.5 45.69-56.9 49.5-85.4 3.808-28.5-25.38-57.1-30.21-85.8-4.95-28.7 14.6-57.3 2.665-86-11.8-28.7-54.96-57.3-69.17-85.8-14.09-28.5 0.6346-56.9 27.8-85.4 27.04-28.5 66.38-57.1 86.06-71.5l19.67-14.3h85.04v14.3 71.5 85.4 85.8 86 85.8 85.4 71.5 14.3z" fill="#9a5021" stroke-linecap="round" stroke-width="1.127"/>
</svg>
