<?xml version="1.0" encoding="UTF-8"?>
<svg id="visual" width="900" height="224" version="1.1" viewBox="0 0 900 224" xmlns="http://www.w3.org/2000/svg">
			<path id="path1" d="m0 99.96 12.5 6.046c12.5 6.15 37.5 18.24 62.5 15.11s50-21.47 75-46.49 50-56.7 75-68.48c25-11.78 50-3.857 75 0.8339 25 4.69 50 6.15 75 27.52 25 21.37 50 62.64 75 64.42 25 1.772 50-36.17 75-55.24s50-19.49 75-8.026 50 34.81 75 41.9c25 7.088 50-1.876 75-21.37s50-49.3 75-39.4c25 9.902 50 59.52 62.5 84.43l12.5 24.81v97.98h-12.5-62.5-75-75-75-75-75-75-75-75-75-75-62.5-12.5z" fill="#00c3a6" stroke-linecap="round" stroke-width="1.021"/>
</svg>
