<?xml version="1.0" encoding="UTF-8"?>
<svg id="visual" width="900" height="224" version="1.1" viewBox="0 0 900 224" xmlns="http://www.w3.org/2000/svg">
			<path id="path1" d="m0 120.6 21.5-13.35c21.5-13.21 64.5-39.91 107.3-53.38 42.9-13.48 85.5-14 128.4-21.59 42.8-7.589 85.8-22.5 128.6-10.86 42.9 11.51 85.5 49.46 128.4 41.21 42.8-8.374 85.8-62.8 128.6-62.67 42.9 0.2617 85.5 55.21 128.4 77.46 42.8 22.24 85.8 11.78 107.3 6.542l21.5-5.234v145.2h-21.5-107.3-128.4-128.6-128.4-128.6-128.4-107.3-21.5z" fill="#007878" stroke-linecap="round" stroke-width="1.144"/>
</svg>
