<?xml version="1.0" encoding="UTF-8"?>
<svg id="visual" width="900" height="137.2" version="1.1" viewBox="0 0 900 137.2" xmlns="http://www.w3.org/2000/svg">
			<path id="path1" d="m0 81.18 13.7-4.7c13.6-4.6 41-14 68.3-27.5s54.7-31.1 81.8-41.1c27.2-10 54.2-12.4 81.4 4.3 27.1 16.7 54.5 52.3 81.8 62.8s54.7-4.1 82-11c27.3-6.8 54.7-5.8 82-15 27.3-9.1 54.7-28.5 82-38.6 27.3-10.2 54.7-11.2 81.8 3.5 27.2 14.6 54.2 45 81.4 52 27.1 7 54.5-9.4 81.8-7.9s54.7 20.9 68.3 30.5l13.7 9.7v39h-13.7-68.3-81.8-81.4-81.8-82-82-82-81.8-81.4-81.8-68.3-13.7z" fill="#c2ded1"/>
			<path id="path2" d="m0 69.18 13.7-9c13.6-9 41-27 68.3-28.8 27.3-1.9 54.7 12.5 81.8 26.3 27.2 13.8 54.2 27.2 81.4 34.7 27.1 7.5 54.5 9.1 81.8 5.1 27.3-4 54.7-13.6 82-20.6s54.7-11.4 82-19.7 54.7-20.7 82-13.5 54.7 33.8 81.8 48c27.2 14.2 54.2 15.8 81.4 9.3 27.1-6.5 54.5-21.1 81.8-26.6s54.7-1.9 68.3 0l13.7 1.8v61h-13.7-68.3-81.8-81.4-81.8-82-82-82-81.8-81.4-81.8-68.3-13.7z" fill="#93aea2"/>
			<path id="path3" d="m0 82.18 13.7-6.2c13.6-6.1 41-18.5 68.3-20.1 27.3-1.7 54.7 7.3 81.8 15.8 27.2 8.5 54.2 16.5 81.4 13.5 27.1-3 54.5-17 81.8-24s54.7-7 82-9.5 54.7-7.5 82-2.3c27.3 5.1 54.7 20.5 82 21.6 27.3 1.2 54.7-11.8 81.8-19.3 27.2-7.5 54.2-9.5 81.4-4.3 27.1 5.1 54.5 17.5 81.8 22.3s54.7 2.2 68.3 0.8l13.7-1.3v68h-13.7-68.3-81.8-81.4-81.8-82-82-82-81.8-81.4-81.8-68.3-13.7z" fill="#678175"/>
			<path id="path4" d="m0 101.2 13.7-1.3c13.6-1.4 41-4 68.3-4.7s54.7 0.7 81.8 4.7c27.2 4 54.2 10.6 81.4 7.8 27.1-2.8 54.5-15.2 81.8-16.8 27.3-1.7 54.7 7.3 82 11.6 27.3 4.4 54.7 4 82-3 27.3-7 54.7-20.6 82-26.3s54.7-3.3 81.8-3.3c27.2 0 54.2-2.4 81.4 0.3 27.1 2.7 54.5 10.3 81.8 13.7 27.3 3.3 54.7 2.3 68.3 1.8l13.7-0.5v52h-13.7-68.3-81.8-81.4-81.8-82-82-82-81.8-81.4-81.8-68.3-13.7z" fill="#3e564c"/>
			<path id="path5" d="m0 121.2 13.7-1.8c13.6-1.9 41-5.5 68.3-5.7s54.7 3.2 81.8 5.3c27.2 2.2 54.2 3.2 81.4 2.5 27.1-0.6 54.5-3 81.8-5.1 27.3-2.2 54.7-4.2 82-4.2s54.7 2 82 2 54.7-2 82-5 54.7-7 81.8-12.8c27.2-5.9 54.2-13.5 81.4-9.4 27.1 4.2 54.5 20.2 81.8 20.4 27.3 0.1 54.7-15.5 68.3-23.4l13.7-7.8v61h-13.7-68.3-81.8-81.4-81.8-82-82-82-81.8-81.4-81.8-68.3-13.7z" fill="#182f26"/>
			<path id="path6" d="m0 121.2 13.7-2.5c13.6-2.5 41-7.5 68.3-11.2 27.3-3.6 54.7-6 81.8-6.3 27.2-0.3 54.2 1.3 81.4 4 27.1 2.7 54.5 6.3 81.8 5s54.7-7.7 82-5.8c27.3 1.8 54.7 11.8 82 15.8s54.7 2 82 0.2c27.3-1.9 54.7-3.5 81.8-2.2 27.2 1.3 54.2 5.7 81.4 3.7 27.1-2 54.5-10.4 81.8-10.7s54.7 7.3 68.3 11.2l13.7 3.8v11h-13.7-68.3-81.8-81.4-81.8-82-82-82-81.8-81.4-81.8-68.3-13.7z"/>
</svg>
