<?xml version="1.0" encoding="UTF-8"?>
<svg id="visual" width="900" height="36.04" version="1.1" viewBox="0 0 900 36.04" xmlns="http://www.w3.org/2000/svg">
			<path id="path6" d="m0 20.04 13.7-2.5c13.6-2.5 41-7.5 68.3-11.2 27.3-3.6 54.7-6 81.8-6.3 27.2-0.3 54.2 1.3 81.4 4 27.1 2.7 54.5 6.3 81.8 5 27.3-1.3 54.7-7.7 82-5.8 27.3 1.8 54.7 11.8 82 15.8s54.7 2 82 0.2c27.3-1.9 54.7-3.5 81.8-2.2 27.2 1.3 54.2 5.7 81.4 3.7 27.1-2 54.5-10.4 81.8-10.7 27.3-0.3 54.7 7.3 68.3 11.2l13.7 3.8v11h-900z"/>
</svg>
