<?xml version="1.0" encoding="UTF-8"?>
<svg id="visual" width="900" height="68.28" version="1.1" viewBox="0 0 900 68.28" xmlns="http://www.w3.org/2000/svg">
			<path id="path4" d="m0 32.28 13.7-1.3c13.6-1.4 41-4 68.3-4.7s54.7 0.7 81.8 4.7c27.2 4 54.2 10.6 81.4 7.8 27.1-2.8 54.5-15.2 81.8-16.8 27.3-1.7 54.7 7.3 82 11.6 27.3 4.4 54.7 4 82-3s54.7-20.6 82-26.3 54.7-3.3 81.8-3.3c27.2 0 54.2-2.4 81.4 0.3 27.1 2.7 54.5 10.3 81.8 13.7 27.3 3.3 54.7 2.3 68.3 1.8l13.7-0.5v52h-900z" fill="#3e564c"/>
</svg>
