<?xml version="1.0" encoding="UTF-8"?>
<svg id="visual" width="900" height="92.7" version="1.1" viewBox="0 0 900 92.7" xmlns="http://www.w3.org/2000/svg">
			<path id="path3" d="m0 37.7 13.7-6.2c13.6-6.1 41-18.5 68.3-20.1 27.3-1.7 54.7 7.3 81.8 15.8 27.2 8.5 54.2 16.5 81.4 13.5 27.1-3 54.5-17 81.8-24 27.3-7 54.7-7 82-9.5s54.7-7.5 82-2.3c27.3 5.1 54.7 20.5 82 21.6 27.3 1.2 54.7-11.8 81.8-19.3 27.2-7.5 54.2-9.5 81.4-4.3 27.1 5.1 54.5 17.5 81.8 22.3s54.7 2.2 68.3 0.8l13.7-1.3v68h-900z" fill="#678175"/>
</svg>
