<?xml version="1.0" encoding="UTF-8"?>
<svg id="visual" width="900" height="137.2" version="1.1" viewBox="0 0 900 137.2" xmlns="http://www.w3.org/2000/svg">
			<path id="path1" d="m0 81.18 13.7-4.7c13.6-4.6 41-14 68.3-27.5s54.7-31.1 81.8-41.1c27.2-10 54.2-12.4 81.4 4.3 27.1 16.7 54.5 52.3 81.8 62.8s54.7-4.1 82-11c27.3-6.8 54.7-5.8 82-15 27.3-9.1 54.7-28.5 82-38.6 27.3-10.2 54.7-11.2 81.8 3.5 27.2 14.6 54.2 45 81.4 52 27.1 7 54.5-9.4 81.8-7.9s54.7 20.9 68.3 30.5l13.7 9.7v39h-900z" fill="#c2ded1"/>
</svg>
