<?xml version="1.0" encoding="UTF-8"?>
<svg id="visual" width="900" height="224" version="1.1" viewBox="0 0 900 224" xmlns="http://www.w3.org/2000/svg">
			<path id="path1" d="m0 87.29 12.5-19.67c12.5-19.56 37.5-58.91 62.5-66.24 25-7.447 50 17 75 30.68 25 13.78 50 16.67 75 23.23 25 6.446 50 16.45 75 22.01 25 5.557 50 6.669 75 16.89 25 10.11 50 29.45 75 34.79s50-3.112 75-7.224 50-3.668 75-18.56c25-14.78 50-44.79 75-61.13 25-16.23 50-18.89 75-11.11s50 26.01 75 25.01c25-0.8891 50-20.89 62.5-30.9l12.5-10v208.9h-12.5-62.5-75-75-75-75-75-75-75-75-75-75-62.5-12.5z" fill="#ffd700" stroke-linecap="round" stroke-width="1.054"/>
</svg>
