<?xml version="1.0" encoding="UTF-8"?>
<svg id="visual" width="900" height="224" version="1.1" viewBox="0 0 900 224" xmlns="http://www.w3.org/2000/svg">
			<path id="path1" d="m0 0 21.5 14.27c21.5 14.27 64.5 42.82 107.3 48.31 42.9 5.49 85.5-12.08 128.4-11.53 42.8 0.549 85.8 19.22 128.6 12.41 42.9-6.698 85.5-38.98 128.4-41.18 42.8-2.196 85.8 25.69 128.6 42.27 42.9 16.69 85.5 22.18 128.4 27.12 42.8 4.941 85.8 9.333 107.3 11.53l21.5 2.196v118.6h-21.5-107.3-128.4-128.6-128.4-128.6-128.4-107.3-21.5z" fill="#607944" stroke-linecap="round" stroke-width="1.048"/>
</svg>
