<?xml version="1.0" encoding="UTF-8"?>
<svg id="visual" width="900" height="224" version="1.1" viewBox="0 0 900 224" xmlns="http://www.w3.org/2000/svg">
			<path id="path1" d="m0 0 12.5 1.931c12.5 1.931 37.5 5.793 62.5 8.497 25 2.8 50 4.345 75 7.434 25 3.09 50 7.531 75 28.97 25 21.43 50 59.67 75 81.59s50 27.32 75 6.083 50-69.13 75-84.48c25-15.26 50 2.124 75 24.62 25 22.59 50 50.21 75 47.31s50-36.3 75-40.36c25-4.055 50 21.43 75 26.36 25 5.021 50-10.43 75-20.57s50-14.97 62.5-17.38l12.5-2.414v156.4h-12.5-62.5-75-75-75-75-75-75-75-75-75-75-62.5-12.5z" fill="#6d8199" stroke-linecap="round" stroke-width=".9826"/>
</svg>
