<?xml version="1.0" encoding="UTF-8"?>
<svg id="visual" width="900" height="224" version="1.1" viewBox="0 0 900 224" xmlns="http://www.w3.org/2000/svg">
			<path id="path1" d="m0 49.69 16.7-5.427c16.6-5.323 50-16.18 83.3-3.757 33.3 12.32 66.7 47.8 100 60.85 33.3 13.05 66.7 3.653 100-13.26 33.3-16.8 66.7-41.23 100-56.15s66.7-20.56 100-25.78c33.3-5.219 66.7-10.02 100-1.566 33.3 8.559 66.7 30.48 100 38.51 33.3 7.932 66.7 2.087 100 15.13s66.7 44.99 83.3 61.06l16.7 15.97v88.72h-16.7-83.3-100-100-100-100-100-100-100-83.3-16.7z" fill="#45678e" stroke-linecap="round" stroke-width="1.022"/>
</svg>
