<?xml version="1.0" encoding="UTF-8"?>
<!-- Uploaded to: SVG Repo, www.svgrepo.com, Generator: SVG Repo Mixer Tools -->
<svg id="Capa_1" width="849.1" height="849.1" version="1.1" viewBox="0 0 301.4 301.4" xmlns="http://www.w3.org/2000/svg">
			<path id="rect2" transform="translate(4.81 359.1)" x="-4.8100357" y="-359.14941" width="301.42899" height="301.42899" d="m29.34-359.1h237.1a30.14 30.14 45 0 1 30.14 30.14v235.5a35.75 35.75 135 0 1-35.75 35.75h-235.5a30.14 30.14 45 0 1-30.14-30.14v-237.1a34.15 34.15 135 0 1 34.15-34.15z" fill="#e4b704" stroke-width=".355"/>
			<g id="g2" transform="matrix(.65 0 0 .65 58.42 58.42)" fill="#4b0082">
						<path id="path1" d="m91.19 191.5c5.547-16.94 14.73-37.03 27.42-53.59 40.04-52.27 70.01-41.92 138.8-125.1-21.5 78.85-30.63 90.42-58.05 129.9 3.488 14.56 7.771 34.48 10.55 49.77z"/>
						<path id="path2" d="m97.86 199.1 98.91 2.092c53.26-16.1 83.72-19 86.64 2.124 3.21 23.2-6.002 35.41-47.28 53.97-36.27 16.3-73.42 15.99-120 10.68-74.14-8.458-119.1-22.98-116-57.67 3.072-34.7 49.22-25.27 97.72-11.19z"/>
			</g>
</svg>
