<svg width="357" height="454" viewBox="0 0 357 454" fill="none" xmlns="http://www.w3.org/2000/svg">
<g clip-path="url(#clip0_21_28)">
<path d="M172.372 105.422C194.509 118.203 197.373 164.367 211.054 209.279C224.823 254.242 249.41 297.953 240.895 336.013C232.381 374.073 190.784 406.551 142.934 420.72C95.1346 434.8 41.101 430.641 13.7196 402.199C-13.6107 373.669 -14.2001 320.908 -16.0956 278.077C-17.9725 235.317 -21.0157 202.45 -7.32694 180.069C6.4317 157.67 36.9224 145.758 72.8289 129.475C108.824 113.243 150.235 92.6411 172.372 105.422Z" fill="#FFB74D"/>
<path d="M295.159 63.1059C324.163 77.6081 356.59 103.19 356.996 129.178C357.402 155.166 325.787 181.56 296.783 205.228C267.778 228.895 241.384 249.895 217.659 247.226C193.933 244.558 172.876 218.28 153.037 194.554C133.256 170.886 114.635 149.829 106.05 120.187C97.4064 90.4861 98.7986 52.2002 118.58 37.698C138.419 23.1958 176.705 32.4772 208.609 38.8582C240.572 45.1811 266.154 48.6037 295.159 63.1059Z" fill="#B48CF1"/>
<path d="M50.1417 283.071C68.1394 309.525 82.9946 330.665 92.6505 361.461C102.249 392.2 106.649 432.595 88.6511 446.878C70.6534 461.162 30.2585 449.335 -7.16524 446.364C-44.589 443.393 -79.0989 449.335 -106.01 435.051C-132.978 420.768 -152.404 386.258 -154.746 349.462C-157.146 312.61 -142.405 273.415 -115.437 246.961C-88.5262 220.507 -49.3313 206.738 -19.1637 215.765C11.0039 224.793 32.144 256.56 50.1417 283.071Z" fill="#D96C6E"/>
<path d="M140.057 10.2545C170.786 25.4346 196.721 60.5309 193.771 92.6519C190.821 124.773 158.924 153.979 128.196 183.611C97.4669 213.242 67.9058 243.36 34.7188 246.942C1.53173 250.525 -35.2198 227.572 -51.1988 197.941C-67.1777 168.249 -62.384 131.938 -56.1154 101.699C-49.9082 71.5213 -42.2875 47.476 -26.3085 32.296C-10.3296 17.1159 14.0076 10.801 43.9374 5.27549C73.8057 -0.250052 109.328 -4.92551 140.057 10.2545Z" fill="#AAD1A1"/>
</g>
<defs>
<clipPath id="clip0_21_28">
<rect width="357" height="454" fill="white"/>
</clipPath>
</defs>
</svg>
