<svg width="683" height="512" viewBox="0 0 683 512" fill="none" xmlns="http://www.w3.org/2000/svg">
<g clip-path="url(#clip0_28_161)">
<path d="M715.619 162.965C725.846 189.746 711.23 221.721 693.712 249.138C676.194 276.556 655.738 299.38 639.777 296.801C623.816 294.257 612.314 266.239 589.346 235.677C566.342 205.115 531.872 172.01 537.641 147.772C543.374 123.57 589.346 108.236 629.868 111.416C670.354 114.56 705.391 136.148 715.619 162.965Z" fill="#A2DAC7"/>
<path d="M240.429 -13.1467C252.182 20.0399 264.253 40.1701 258.535 60.0187C252.817 79.8673 229.275 99.3992 208.345 97.9211C187.379 96.4078 169.061 73.8846 153.142 48.194C137.259 22.5034 123.811 -6.35452 132.988 -38.0278C142.165 -69.7012 173.931 -104.19 195.568 -98.3479C217.204 -92.5059 228.675 -46.2981 240.429 -13.1467Z" fill="#6F263D"/>
<path d="M184.165 89.2244C173.447 101.911 133.348 90.7629 108.099 79.6068C82.8825 68.4364 72.5016 57.226 51.9496 33.3605C31.3797 9.54153 0.606412 -26.9183 8.47008 -46.3661C16.3337 -65.8139 62.8163 -68.2031 94.1044 -57.0711C125.375 -45.8925 141.418 -21.1782 158.803 9.42564C176.156 40.0439 194.883 76.5374 184.165 89.2244Z" fill="#9E91D9"/>
<path d="M421.884 -3.20317C440.29 23.2679 434.695 69.0548 413.508 98.5573C392.322 128.095 355.546 141.348 331.439 134.017C307.332 126.72 295.894 98.7688 273.054 68.2794C250.179 37.79 215.901 4.76283 221.637 -14.412C227.338 -33.5868 273.054 -38.874 317.08 -37.887C361.142 -36.9353 403.514 -29.7095 421.884 -3.20317Z" fill="#B0E57C"/>
<path d="M347.619 100.965C357.846 127.746 343.23 159.721 325.712 187.138C308.194 214.556 287.738 237.38 271.777 234.801C255.816 232.257 244.314 204.239 221.346 173.677C198.342 143.115 163.872 110.01 169.641 85.7721C175.374 61.57 221.346 46.2361 261.868 49.4159C302.354 52.5605 337.391 74.1481 347.619 100.965Z" fill="#A2DAC7"/>
<path d="M533.531 113.503C549.575 129.456 546.5 168.312 528.937 193.837C511.409 219.362 479.357 231.558 442.428 234.394C405.5 237.23 363.694 230.707 340.724 202.062C317.79 173.417 313.69 122.579 334.611 103.825C355.531 85.0706 401.436 98.3651 441.934 101.485C482.432 104.64 517.523 97.5852 533.531 113.503Z" fill="#A3B96E"/>
<path d="M418.021 211.044C428.122 239.979 436.92 258.338 431.183 279.102C425.482 299.866 405.247 323.035 372.306 330.428C339.331 337.821 293.616 329.473 277.779 302.802C261.907 276.166 275.949 231.242 298.789 194.914C321.664 158.621 353.338 130.889 374.911 136.796C396.484 142.668 407.921 182.144 418.021 211.044Z" fill="#5C3A36"/>
<path d="M612.53 225.788C634.192 259.573 634.582 309.054 613.132 327.988C591.682 346.887 548.358 335.238 504.822 335.343C461.285 335.449 417.572 347.379 394.565 327.566C371.593 307.787 369.328 256.265 391.202 222.374C413.077 188.483 459.055 172.154 503.512 173.034C547.933 173.914 590.868 192.003 612.53 225.788Z" fill="#9FD5B5"/>
<path d="M532.243 -11.1093C548.135 24.174 547.852 60.9348 531.784 80.4233C515.715 99.9118 483.931 102.163 445.083 106.209C406.236 110.254 360.361 116.094 354.639 102.55C348.883 88.9715 383.281 56.0099 406.236 16.6812C429.156 -22.6828 440.633 -68.3787 462.423 -74.3238C484.213 -80.2337 516.351 -46.4278 532.243 -11.1093Z" fill="#A9C4A3"/>
<path d="M726.912 313.381C732.678 343.147 714.356 366.917 699.431 385.256C684.54 403.595 673.045 416.503 646.094 425.391C619.178 434.278 576.806 439.18 557.141 418.09C537.511 397.035 540.552 349.989 561.739 311.371C582.925 272.717 622.255 242.423 656.811 245.174C691.366 247.889 721.183 283.65 726.912 313.381Z" fill="#333333"/>
<path d="M694.021 43.0441C704.122 71.9793 712.92 90.3379 707.183 111.102C701.482 131.866 681.247 155.035 648.306 162.428C615.331 169.821 569.616 161.473 553.779 134.802C537.907 108.166 551.949 63.2421 574.789 26.9139C597.664 -9.3789 629.338 -37.1114 650.911 -31.2041C672.484 -25.3322 683.921 14.1442 694.021 43.0441Z" fill="#5C3A36"/>
<path d="M703.783 -50.2089C711.014 -35.2576 684.522 -3.15834 664.062 15.3714C643.602 33.8657 629.139 38.7904 598.978 47.8604C568.852 56.9658 523.029 70.252 508.46 55.1589C493.891 40.0659 510.612 -3.37091 533.506 -27.4277C556.435 -51.449 585.538 -56.0548 620.567 -59.4915C655.596 -62.8928 696.551 -65.1603 703.783 -50.2089Z" fill="#9E91D9"/>
<path d="M624.884 83.7968C643.29 110.268 637.695 156.055 616.508 185.557C595.322 215.095 558.546 228.348 534.439 221.017C510.332 213.72 498.894 185.769 476.054 155.279C453.179 124.79 418.901 91.7628 424.637 72.588C430.338 53.4132 476.054 48.126 520.08 49.113C564.142 50.0647 606.514 57.2905 624.884 83.7968Z" fill="#B0E57C"/>
<path d="M714.429 382.853C726.182 416.04 738.253 436.17 732.535 456.019C726.817 475.867 703.275 495.399 682.345 493.921C661.379 492.408 643.061 469.885 627.142 444.194C611.259 418.503 597.811 389.645 606.988 357.972C616.165 326.299 647.931 291.81 669.568 297.652C691.204 303.494 702.675 349.702 714.429 382.853Z" fill="#6F263D"/>
</g>
<defs>
<clipPath id="clip0_28_161">
<rect width="683" height="512" fill="white"/>
</clipPath>
</defs>
</svg>
