<svg width="52" height="52" viewBox="0 0 52 52" fill="none" xmlns="http://www.w3.org/2000/svg">
<path d="M41.1667 0H10.8333C4.85117 0 0 4.85117 0 10.8333V41.1667C0 47.1488 4.85117 52 10.8333 52H41.1667C47.151 52 52 47.1488 52 41.1667V10.8333C52 4.85117 47.151 0 41.1667 0ZM17.3333 41.1667H10.8333V17.3333H17.3333V41.1667ZM14.0833 14.586C11.9903 14.586 10.2917 12.8743 10.2917 10.764C10.2917 8.65367 11.9903 6.942 14.0833 6.942C16.1763 6.942 17.875 8.65367 17.875 10.764C17.875 12.8743 16.1785 14.586 14.0833 14.586ZM43.3333 41.1667H36.8333V29.0247C36.8333 21.7273 28.1667 22.2798 28.1667 29.0247V41.1667H21.6667V17.3333H28.1667V21.1575C31.1913 15.5545 43.3333 15.1407 43.3333 26.5222V41.1667Z" fill="#F6F6F6"/>
</svg>
