<svg width="68" height="76" viewBox="0 0 68 76" fill="none" xmlns="http://www.w3.org/2000/svg">
<path d="M22.125 21.375V28.5H45.875V21.375C45.875 14.8141 40.5609 9.5 34 9.5C27.4391 9.5 22.125 14.8141 22.125 21.375ZM12.625 28.5V21.375C12.625 9.57422 22.1992 0 34 0C45.8008 0 55.375 9.57422 55.375 21.375V28.5H57.75C62.9898 28.5 67.25 32.7602 67.25 38V66.5C67.25 71.7398 62.9898 76 57.75 76H10.25C5.01016 76 0.75 71.7398 0.75 66.5V38C0.75 32.7602 5.01016 28.5 10.25 28.5H12.625Z" fill="#ECE5C7"/>
</svg>
