<svg width="18" height="24" viewBox="0 0 18 24" fill="none" xmlns="http://www.w3.org/2000/svg">
<path d="M3 21.75C2.5875 21.75 2.25 21.4125 2.25 21V3C2.25 2.5875 2.5875 2.25 3 2.25H10.5V6C10.5 6.82969 11.1703 7.5 12 7.5H15.75V21C15.75 21.4125 15.4125 21.75 15 21.75H3ZM3 0C1.34531 0 0 1.34531 0 3V21C0 22.6547 1.34531 24 3 24H15C16.6547 24 18 22.6547 18 21V7.24219C18 6.44531 17.6859 5.68125 17.1234 5.11875L12.8766 0.876563C12.3141 0.314063 11.5547 0 10.7578 0H3ZM5.625 12C5.00156 12 4.5 12.5016 4.5 13.125C4.5 13.7484 5.00156 14.25 5.625 14.25H12.375C12.9984 14.25 13.5 13.7484 13.5 13.125C13.5 12.5016 12.9984 12 12.375 12H5.625ZM5.625 16.5C5.00156 16.5 4.5 17.0016 4.5 17.625C4.5 18.2484 5.00156 18.75 5.625 18.75H12.375C12.9984 18.75 13.5 18.2484 13.5 17.625C13.5 17.0016 12.9984 16.5 12.375 16.5H5.625Z" fill="#FFF7D4"/>
</svg>
