<svg width="26" height="37" viewBox="0 0 26 37" fill="none" xmlns="http://www.w3.org/2000/svg">
<path d="M5.125 0.5C2.64297 0.5 0.625 2.51797 0.625 5V32C0.625 34.482 2.64297 36.5 5.125 36.5H20.875C23.357 36.5 25.375 34.482 25.375 32V5C25.375 2.51797 23.357 0.5 20.875 0.5H5.125ZM13 28.625C13.5967 28.625 14.169 28.8621 14.591 29.284C15.0129 29.706 15.25 30.2783 15.25 30.875C15.25 31.4717 15.0129 32.044 14.591 32.466C14.169 32.8879 13.5967 33.125 13 33.125C12.4033 33.125 11.831 32.8879 11.409 32.466C10.9871 32.044 10.75 31.4717 10.75 30.875C10.75 30.2783 10.9871 29.706 11.409 29.284C11.831 28.8621 12.4033 28.625 13 28.625Z" fill="#354259"/>
</svg>
