<svg width="1366" height="276" viewBox="0 0 1366 276" fill="none" xmlns="http://www.w3.org/2000/svg">
<g clip-path="url(#clip0_25_436)">
<path d="M935.843 221.288V279.017H963.877V221.288H935.843Z" fill="#1D2B32"/>
<path d="M833 221.288H1062.74L949.944 108.485L833 221.288Z" fill="#1D2B32"/>
<path d="M852.076 154.934H1042.84L949.115 37.9835L852.076 154.934Z" fill="#1D2B32"/>
<path d="M874.47 88.5787H1020.44L948.7 -1L874.47 88.5787Z" fill="#1D2B32"/>
<path d="M-165 295.772H27L-67.2671 201.5L-165 295.772Z" fill="#1F313A"/>
<path d="M-149.057 240.317H10.3652L-67.9597 142.579L-149.057 240.317Z" fill="#1F313A"/>
<path d="M22 276.772H214L119.733 182.5L22 276.772Z" fill="#1F313A"/>
<path d="M37.9429 221.317H197.365L119.04 123.579L37.9429 221.317Z" fill="#1F313A"/>
<path d="M56.6567 165.863H178.65L118.693 91L56.6567 165.863Z" fill="#1F313A"/>
<path d="M756 293.772H948L853.733 199.5L756 293.772Z" fill="#1F313A"/>
<path d="M771.942 238.317H931.365L853.04 140.579L771.942 238.317Z" fill="#1F313A"/>
<path d="M790.657 182.863H912.65L852.693 108L790.657 182.863Z" fill="#1F313A"/>
<path d="M1143 293.772H1335L1240.73 199.5L1143 293.772Z" fill="#1F313A"/>
<path d="M1158.94 238.317H1318.36L1240.04 140.579L1158.94 238.317Z" fill="#1F313A"/>
<path d="M1177.66 182.863H1299.65L1239.69 108L1177.66 182.863Z" fill="#1F313A"/>
<path d="M370 304.772H562L467.733 210.5L370 304.772Z" fill="#1F313A"/>
<path d="M385.942 249.317H545.365L467.04 151.579L385.942 249.317Z" fill="#1F313A"/>
<path d="M404.657 193.863H526.65L466.693 119L404.657 193.863Z" fill="#1F313A"/>
<path d="M194 287.772H386L291.733 193.5L194 287.772Z" fill="#1F313A"/>
<path d="M209.942 232.317H369.364L291.04 134.579L209.942 232.317Z" fill="#1F313A"/>
<path d="M228.657 176.863H350.65L290.693 102L228.657 176.863Z" fill="#1F313A"/>
<path d="M556 276.772H748L653.733 182.5L556 276.772Z" fill="#1F313A"/>
<path d="M571.942 221.317H731.365L653.04 123.579L571.942 221.317Z" fill="#1F313A"/>
<path d="M590.657 165.863H712.65L652.693 91L590.657 165.863Z" fill="#1F313A"/>
<path d="M968 276.772H1160L1065.73 182.5L968 276.772Z" fill="#1F313A"/>
<path d="M983.942 221.317H1143.36L1065.04 123.579L983.942 221.317Z" fill="#1F313A"/>
<path d="M1002.66 165.863H1124.65L1064.69 91L1002.66 165.863Z" fill="#1F313A"/>
<path d="M-82 289.772H110L15.7329 195.5L-82 289.772Z" fill="#314C59"/>
<path d="M-66.0571 234.317H93.3652L15.0403 136.579L-66.0571 234.317Z" fill="#314C59"/>
<path d="M-47.3433 178.863H74.6495L14.6929 104L-47.3433 178.863Z" fill="#314C59"/>
<path d="M190.949 270.772V319.017H214.378V270.772H190.949Z" fill="#314C59"/>
<path d="M105 270.772H297L202.733 176.5L105 270.772Z" fill="#314C59"/>
<path d="M120.943 215.317H280.365L202.04 117.579L120.943 215.317Z" fill="#314C59"/>
<path d="M139.657 159.863H261.65L201.693 85L139.657 159.863Z" fill="#314C59"/>
<path d="M839 287.772H1031L936.733 193.5L839 287.772Z" fill="#314C59"/>
<path d="M854.942 232.317H1014.36L936.04 134.579L854.942 232.317Z" fill="#314C59"/>
<path d="M873.657 176.863H995.65L935.693 102L873.657 176.863Z" fill="#314C59"/>
<path d="M1226 287.772H1418L1323.73 193.5L1226 287.772Z" fill="#314C59"/>
<path d="M1241.94 232.317H1401.36L1323.04 134.579L1241.94 232.317Z" fill="#314C59"/>
<path d="M1260.66 176.863H1382.65L1322.69 102L1260.66 176.863Z" fill="#314C59"/>
<path d="M453 298.772H645L550.733 204.5L453 298.772Z" fill="#314C59"/>
<path d="M468.942 243.317H628.365L550.04 145.579L468.942 243.317Z" fill="#314C59"/>
<path d="M487.657 187.863H609.65L549.693 113L487.657 187.863Z" fill="#314C59"/>
<path d="M277 281.772H469L374.733 187.5L277 281.772Z" fill="#314C59"/>
<path d="M292.942 226.317H452.364L374.04 128.579L292.942 226.317Z" fill="#314C59"/>
<path d="M311.657 170.863H433.65L373.693 96L311.657 170.863Z" fill="#314C59"/>
<path d="M1030.95 266.772V315.017H1054.38V266.772H1030.95Z" fill="#314C59"/>
<path d="M945 266.772H1137L1042.73 172.5L945 266.772Z" fill="#314C59"/>
<path d="M960.942 211.317H1120.36L1042.04 113.579L960.942 211.317Z" fill="#314C59"/>
<path d="M979.657 155.863H1101.65L1041.69 81L979.657 155.863Z" fill="#314C59"/>
<path d="M650 283.772H842L747.733 189.5L650 283.772Z" fill="#314C59"/>
<path d="M665.942 228.317H825.365L747.04 130.579L665.942 228.317Z" fill="#314C59"/>
<path d="M684.657 172.863H806.65L746.693 98L684.657 172.863Z" fill="#314C59"/>
<path d="M1136.95 270.772V319.017H1160.38V270.772H1136.95Z" fill="#314C59"/>
<path d="M1051 270.772H1243L1148.73 176.5L1051 270.772Z" fill="#314C59"/>
<path d="M1066.94 215.317H1226.36L1148.04 117.579L1066.94 215.317Z" fill="#314C59"/>
<path d="M1085.66 159.863H1207.65L1147.69 85L1085.66 159.863Z" fill="#314C59"/>
</g>
<defs>
<clipPath id="clip0_25_436">
<rect width="1379" height="285" fill="white"/>
</clipPath>
</defs>
</svg>
