<svg width="36" height="37" viewBox="0 0 36 37" fill="none" xmlns="http://www.w3.org/2000/svg">
<path d="M11.932 0.563234C10.3289 0.450734 8.98594 1.54761 8.59219 3.00308L7.7625 6.12495C7.79766 6.12495 7.83984 6.12495 7.875 6.12495C20.2992 6.12495 30.375 16.2007 30.375 28.625C30.375 28.6601 30.375 28.7023 30.375 28.7375L33.4969 27.9078C34.9594 27.521 36.0492 26.171 35.9367 24.5679C35.0508 11.7148 24.7852 1.44917 11.932 0.563234ZM28.1109 29.3421C28.118 29.1031 28.125 28.864 28.125 28.625C28.125 17.4382 19.0617 8.37495 7.875 8.37495C7.63594 8.37495 7.39688 8.38198 7.15781 8.38902L0.035157 35.0867C-0.0703118 35.4734 0.0421882 35.8882 0.323438 36.1695C0.604688 36.4507 1.01953 36.5632 1.40625 36.4578L28.1109 29.3421ZM12.375 15.125C12.9717 15.125 13.544 15.362 13.966 15.784C14.3879 16.2059 14.625 16.7782 14.625 17.375C14.625 17.9717 14.3879 18.544 13.966 18.9659C13.544 19.3879 12.9717 19.625 12.375 19.625C11.7783 19.625 11.206 19.3879 10.784 18.9659C10.3621 18.544 10.125 17.9717 10.125 17.375C10.125 16.7782 10.3621 16.2059 10.784 15.784C11.206 15.362 11.7783 15.125 12.375 15.125ZM16.875 24.125C16.875 23.5282 17.1121 22.9559 17.534 22.534C17.956 22.112 18.5283 21.875 19.125 21.875C19.7217 21.875 20.294 22.112 20.716 22.534C21.1379 22.9559 21.375 23.5282 21.375 24.125C21.375 24.7217 21.1379 25.294 20.716 25.7159C20.294 26.1379 19.7217 26.375 19.125 26.375C18.5283 26.375 17.956 26.1379 17.534 25.7159C17.1121 25.294 16.875 24.7217 16.875 24.125ZM6.75 27.5C6.75 26.9032 6.98705 26.3309 7.40901 25.909C7.83097 25.487 8.40326 25.25 9 25.25C9.59674 25.25 10.169 25.487 10.591 25.909C11.0129 26.3309 11.25 26.9032 11.25 27.5C11.25 28.0967 11.0129 28.669 10.591 29.0909C10.169 29.5129 9.59674 29.75 9 29.75C8.40326 29.75 7.83097 29.5129 7.40901 29.0909C6.98705 28.669 6.75 28.0967 6.75 27.5Z" fill="#354259"/>
</svg>
