<svg width="36" height="33" viewBox="0 0 36 33" fill="none" xmlns="http://www.w3.org/2000/svg">
<path d="M4.5 0.75C2.01797 0.75 0 2.76797 0 5.25V9.75C0 12.232 2.01797 14.25 4.5 14.25H31.5C33.982 14.25 36 12.232 36 9.75V5.25C36 2.76797 33.982 0.75 31.5 0.75H4.5ZM24.1875 5.8125C24.6351 5.8125 25.0643 5.99029 25.3807 6.30676C25.6972 6.62322 25.875 7.05245 25.875 7.5C25.875 7.94755 25.6972 8.37678 25.3807 8.69324C25.0643 9.00971 24.6351 9.1875 24.1875 9.1875C23.7399 9.1875 23.3107 9.00971 22.9943 8.69324C22.6778 8.37678 22.5 7.94755 22.5 7.5C22.5 7.05245 22.6778 6.62322 22.9943 6.30676C23.3107 5.99029 23.7399 5.8125 24.1875 5.8125ZM27.5625 7.5C27.5625 7.05245 27.7403 6.62322 28.0568 6.30676C28.3732 5.99029 28.8024 5.8125 29.25 5.8125C29.6976 5.8125 30.1268 5.99029 30.4432 6.30676C30.7597 6.62322 30.9375 7.05245 30.9375 7.5C30.9375 7.94755 30.7597 8.37678 30.4432 8.69324C30.1268 9.00971 29.6976 9.1875 29.25 9.1875C28.8024 9.1875 28.3732 9.00971 28.0568 8.69324C27.7403 8.37678 27.5625 7.94755 27.5625 7.5ZM4.5 18.75C2.01797 18.75 0 20.768 0 23.25V27.75C0 30.232 2.01797 32.25 4.5 32.25H31.5C33.982 32.25 36 30.232 36 27.75V23.25C36 20.768 33.982 18.75 31.5 18.75H4.5ZM24.1875 23.8125C24.6351 23.8125 25.0643 23.9903 25.3807 24.3068C25.6972 24.6232 25.875 25.0524 25.875 25.5C25.875 25.9476 25.6972 26.3768 25.3807 26.6932C25.0643 27.0097 24.6351 27.1875 24.1875 27.1875C23.7399 27.1875 23.3107 27.0097 22.9943 26.6932C22.6778 26.3768 22.5 25.9476 22.5 25.5C22.5 25.0524 22.6778 24.6232 22.9943 24.3068C23.3107 23.9903 23.7399 23.8125 24.1875 23.8125ZM28.125 25.5C28.125 25.0524 28.3028 24.6232 28.6193 24.3068C28.9357 23.9903 29.3649 23.8125 29.8125 23.8125C30.2601 23.8125 30.6893 23.9903 31.0057 24.3068C31.3222 24.6232 31.5 25.0524 31.5 25.5C31.5 25.9476 31.3222 26.3768 31.0057 26.6932C30.6893 27.0097 30.2601 27.1875 29.8125 27.1875C29.3649 27.1875 28.9357 27.0097 28.6193 26.6932C28.3028 26.3768 28.125 25.9476 28.125 25.5Z" fill="#354259"/>
</svg>
