<svg width="36" height="36" viewBox="0 0 36 37" fill="none" xmlns="http://www.w3.org/2000/svg">
<g clip-path="url(#clip0_38_47)">
<path d="M0 18.5C0 13.7261 1.89642 9.14773 5.27208 5.77208C8.64773 2.39642 13.2261 0.5 18 0.5C22.7739 0.5 27.3523 2.39642 30.7279 5.77208C34.1036 9.14773 36 13.7261 36 18.5C36 23.2739 34.1036 27.8523 30.7279 31.2279C27.3523 34.6036 22.7739 36.5 18 36.5C13.2261 36.5 8.64773 34.6036 5.27208 31.2279C1.89642 27.8523 0 23.2739 0 18.5ZM20.25 7.25C20.25 6.65326 20.0129 6.08097 19.591 5.65901C19.169 5.23705 18.5967 5 18 5C17.4033 5 16.831 5.23705 16.409 5.65901C15.9871 6.08097 15.75 6.65326 15.75 7.25C15.75 7.84674 15.9871 8.41903 16.409 8.84099C16.831 9.26295 17.4033 9.5 18 9.5C18.5967 9.5 19.169 9.26295 19.591 8.84099C20.0129 8.41903 20.25 7.84674 20.25 7.25ZM18 29.75C20.482 29.75 22.5 27.732 22.5 25.25C22.5 24.0266 22.0148 22.9227 21.2273 22.1141L25.7344 11.8695C26.107 11.0188 25.7203 10.0203 24.8695 9.64766C24.0188 9.275 23.0203 9.66172 22.6477 10.5125L18.1336 20.75C18.0914 20.75 18.0422 20.75 18 20.75C15.518 20.75 13.5 22.768 13.5 25.25C13.5 27.732 15.518 29.75 18 29.75ZM12.375 10.625C12.375 10.0283 12.1379 9.45597 11.716 9.03401C11.294 8.61205 10.7217 8.375 10.125 8.375C9.52826 8.375 8.95597 8.61205 8.53401 9.03401C8.11205 9.45597 7.875 10.0283 7.875 10.625C7.875 11.2217 8.11205 11.794 8.53401 12.216C8.95597 12.6379 9.52826 12.875 10.125 12.875C10.7217 12.875 11.294 12.6379 11.716 12.216C12.1379 11.794 12.375 11.2217 12.375 10.625ZM6.75 20.75C7.34674 20.75 7.91903 20.5129 8.34099 20.091C8.76295 19.669 9 19.0967 9 18.5C9 17.9033 8.76295 17.331 8.34099 16.909C7.91903 16.4871 7.34674 16.25 6.75 16.25C6.15326 16.25 5.58097 16.4871 5.15901 16.909C4.73705 17.331 4.5 17.9033 4.5 18.5C4.5 19.0967 4.73705 19.669 5.15901 20.091C5.58097 20.5129 6.15326 20.75 6.75 20.75ZM31.5 18.5C31.5 17.9033 31.2629 17.331 30.841 16.909C30.419 16.4871 29.8467 16.25 29.25 16.25C28.6533 16.25 28.081 16.4871 27.659 16.909C27.2371 17.331 27 17.9033 27 18.5C27 19.0967 27.2371 19.669 27.659 20.091C28.081 20.5129 28.6533 20.75 29.25 20.75C29.8467 20.75 30.419 20.5129 30.841 20.091C31.2629 19.669 31.5 19.0967 31.5 18.5Z" fill="#354259"/>
</g>
<defs>
<clipPath id="clip0_38_47">
<rect width="36" height="36" fill="white" transform="translate(0 0.5)"/>
</clipPath>
</defs>
</svg>
