<svg width="22" height="22" viewBox="0 0 22 22" fill="none" xmlns="http://www.w3.org/2000/svg">
<path d="M12.2042 1.08325C11.9833 0.624919 11.5167 0.333252 11.0042 0.333252C10.4917 0.333252 10.0292 0.624919 9.80417 1.08325L7.125 6.59575L1.14167 7.47909C0.641667 7.55409 0.225 7.90409 0.0708333 8.38325C-0.0833333 8.86242 0.0416665 9.39159 0.4 9.74575L4.74167 14.0416L3.71667 20.1124C3.63333 20.6124 3.84167 21.1208 4.25417 21.4166C4.66667 21.7124 5.2125 21.7499 5.6625 21.5124L11.0083 18.6583L16.3542 21.5124C16.8042 21.7499 17.35 21.7166 17.7625 21.4166C18.175 21.1166 18.3833 20.6124 18.3 20.1124L17.2708 14.0416L21.6125 9.74575C21.9708 9.39159 22.1 8.86242 21.9417 8.38325C21.7833 7.90409 21.3708 7.55409 20.8708 7.47909L14.8833 6.59575L12.2042 1.08325Z" fill="#FFA500"/>
</svg>
