<?xml version="1.0" encoding="UTF-8"?>
<!-- Created with Inkscape (http://www.inkscape.org/) -->
<svg version="1.1" viewBox="0 0 218.3 97.98" xmlns="http://www.w3.org/2000/svg">
    <g id="constellation" transform="translate(-2.682 -16.47)" fill="#fff" stroke-width=".332">
        <path d="m111.1 97.75a0.3969 0.3969 0 0 1 0.3496 0.4391 0.3969 0.3969 0 0 1-0.4391 0.3496 0.3969 0.3969 0 0 1-0.3496-0.4391 0.3969 0.3969 0 0 1 0.439-0.3496"/>
        <path d="m121.4 96.63a0.3969 0.3969 0 0 1 0.3496 0.4391 0.3969 0.3969 0 0 1-0.4391 0.3496 0.3969 0.3969 0 0 1-0.3496-0.4391 0.3969 0.3969 0 0 1 0.439-0.3496"/>
        <path d="m121.8 85.77a0.3969 0.3969 0 0 1 0.3496 0.4391 0.3969 0.3969 0 0 1-0.4391 0.3496 0.3969 0.3969 0 0 1-0.3496-0.4391 0.3969 0.3969 0 0 1 0.439-0.3496"/>
        <path d="m110.3 86.26a0.3969 0.3969 0 0 1 0.3496 0.4391 0.3969 0.3969 0 0 1-0.4391 0.3496 0.3969 0.3969 0 0 1-0.3496-0.4391 0.3969 0.3969 0 0 1 0.439-0.3496"/>
        <path d="m115.9 75.81a0.3969 0.3969 0 0 1 0.3496 0.4391 0.3969 0.3969 0 0 1-0.4391 0.3496 0.3969 0.3969 0 0 1-0.3496-0.4391 0.3969 0.3969 0 0 1 0.439-0.3496"/>
        <path d="m114.7 70.85a0.3969 0.3969 0 0 1 0.3496 0.4391 0.3969 0.3969 0 0 1-0.4391 0.3496 0.3969 0.3969 0 0 1-0.3496-0.4391 0.3969 0.3969 0 0 1 0.439-0.3496"/>
        <path d="m122.5 70.9a0.3969 0.3969 0 0 1 0.3496 0.4391 0.3969 0.3969 0 0 1-0.4391 0.3496 0.3969 0.3969 0 0 1-0.3496-0.4391 0.3969 0.3969 0 0 1 0.439-0.3496"/>
        <path d="m116.2 63.5a0.3969 0.3969 0 0 1 0.3496 0.4391 0.3969 0.3969 0 0 1-0.4391 0.3496 0.3969 0.3969 0 0 1-0.3496-0.4391 0.3969 0.3969 0 0 1 0.439-0.3496"/>
        <path d="m110.7 58.35a0.3969 0.3969 0 0 1 0.3496 0.4391 0.3969 0.3969 0 0 1-0.4391 0.3496 0.3969 0.3969 0 0 1-0.3496-0.4391 0.3969 0.3969 0 0 1 0.439-0.3496"/>
        <path d="m112.2 49.57a0.3969 0.3969 0 0 1 0.3496 0.4391 0.3969 0.3969 0 0 1-0.4391 0.3496 0.3969 0.3969 0 0 1-0.3496-0.4391 0.3969 0.3969 0 0 1 0.439-0.3496"/>
        <path d="m145.7 48.73a0.3969 0.3969 0 0 1 0.3496 0.4391 0.3969 0.3969 0 0 1-0.4391 0.3496 0.3969 0.3969 0 0 1-0.3496-0.4391 0.3969 0.3969 0 0 1 0.439-0.3496"/>
        <path d="m152.1 50.86a0.3969 0.3969 0 0 1 0.3496 0.4391 0.3969 0.3969 0 0 1-0.4391 0.3496 0.3969 0.3969 0 0 1-0.3496-0.4391 0.3969 0.3969 0 0 1 0.439-0.3496"/>
        <path d="m155 58.4a0.3969 0.3969 0 0 1 0.3496 0.4391 0.3969 0.3969 0 0 1-0.4391 0.3496 0.3969 0.3969 0 0 1-0.3496-0.4391 0.3969 0.3969 0 0 1 0.439-0.3496"/>
        <path d="m164.3 65.15a0.3969 0.3969 0 0 1 0.3496 0.4391 0.3969 0.3969 0 0 1-0.4391 0.3496 0.3969 0.3969 0 0 1-0.3496-0.4391 0.3969 0.3969 0 0 1 0.439-0.3496"/>
        <path d="m152.5 63.9a0.3969 0.3969 0 0 1 0.3496 0.4391 0.3969 0.3969 0 0 1-0.4391 0.3496 0.3969 0.3969 0 0 1-0.3496-0.4391 0.3969 0.3969 0 0 1 0.439-0.3496"/>
        <path d="m143.1 66.15a0.3969 0.3969 0 0 1 0.3496 0.4391 0.3969 0.3969 0 0 1-0.4391 0.3496 0.3969 0.3969 0 0 1-0.3496-0.4391 0.3969 0.3969 0 0 1 0.439-0.3496"/>
        <path d="m137.5 63.24a0.3969 0.3969 0 0 1 0.3496 0.4391 0.3969 0.3969 0 0 1-0.4391 0.3496 0.3969 0.3969 0 0 1-0.3496-0.4391 0.3969 0.3969 0 0 1 0.439-0.3496"/>
        <path d="m158.7 73.82a0.3969 0.3969 0 0 1 0.3496 0.4391 0.3969 0.3969 0 0 1-0.4391 0.3496 0.3969 0.3969 0 0 1-0.3496-0.4391 0.3969 0.3969 0 0 1 0.439-0.3496"/>
        <path d="m143.8 91.28a0.3969 0.3969 0 0 1 0.3496 0.4391 0.3969 0.3969 0 0 1-0.4391 0.3496 0.3969 0.3969 0 0 1-0.3496-0.4391 0.3969 0.3969 0 0 1 0.439-0.3496"/>
        <path d="m142.8 89.43a0.3969 0.3969 0 0 1 0.3496 0.4391 0.3969 0.3969 0 0 1-0.4391 0.3496 0.3969 0.3969 0 0 1-0.3496-0.4391 0.3969 0.3969 0 0 1 0.439-0.3496"/>
        <path d="m144.6 87.84a0.3969 0.3969 0 0 1 0.3496 0.4391 0.3969 0.3969 0 0 1-0.4391 0.3496 0.3969 0.3969 0 0 1-0.3496-0.4391 0.3969 0.3969 0 0 1 0.439-0.3496"/>
        <path d="m146 88.9a0.3969 0.3969 0 0 1 0.3496 0.4391 0.3969 0.3969 0 0 1-0.4391 0.3496 0.3969 0.3969 0 0 1-0.3496-0.4391 0.3969 0.3969 0 0 1 0.439-0.3496"/>
        <path d="m145.4 91.28a0.3969 0.3969 0 0 1 0.3496 0.4391 0.3969 0.3969 0 0 1-0.4391 0.3496 0.3969 0.3969 0 0 1-0.3496-0.4391 0.3969 0.3969 0 0 1 0.439-0.3496"/>
        <path d="m146.2 92.61a0.3969 0.3969 0 0 1 0.3496 0.4391 0.3969 0.3969 0 0 1-0.4391 0.3496 0.3969 0.3969 0 0 1-0.3496-0.4391 0.3969 0.3969 0 0 1 0.439-0.3496"/>
        <path d="m151 93.14a0.3969 0.3969 0 0 1 0.3496 0.4391 0.3969 0.3969 0 0 1-0.4391 0.3496 0.3969 0.3969 0 0 1-0.3496-0.4391 0.3969 0.3969 0 0 1 0.439-0.3496"/>
        <path d="m155.5 93.93a0.3969 0.3969 0 0 1 0.3496 0.4391 0.3969 0.3969 0 0 1-0.4391 0.3496 0.3969 0.3969 0 0 1-0.3496-0.4391 0.3969 0.3969 0 0 1 0.439-0.3496"/>
        <path d="m156 92.08a0.3969 0.3969 0 0 1 0.3496 0.4391 0.3969 0.3969 0 0 1-0.4391 0.3496 0.3969 0.3969 0 0 1-0.3496-0.4391 0.3969 0.3969 0 0 1 0.439-0.3496"/>
        <path d="m159.2 88.9a0.3969 0.3969 0 0 1 0.3496 0.4391 0.3969 0.3969 0 0 1-0.4391 0.3496 0.3969 0.3969 0 0 1-0.3496-0.4391 0.3969 0.3969 0 0 1 0.439-0.3496"/>
        <path d="m165.8 88.9a0.3969 0.3969 0 0 1 0.3496 0.4391 0.3969 0.3969 0 0 1-0.4391 0.3496 0.3969 0.3969 0 0 1-0.3496-0.4391 0.3969 0.3969 0 0 1 0.439-0.3496"/>
        <path d="m166.6 92.61a0.3969 0.3969 0 0 1 0.3496 0.4391 0.3969 0.3969 0 0 1-0.4391 0.3496 0.3969 0.3969 0 0 1-0.3496-0.4391 0.3969 0.3969 0 0 1 0.439-0.3496"/>
        <path d="m171.1 92.34a0.3969 0.3969 0 0 1 0.3496 0.4391 0.3969 0.3969 0 0 1-0.4391 0.3496 0.3969 0.3969 0 0 1-0.3496-0.4391 0.3969 0.3969 0 0 1 0.439-0.3496"/>
        <path d="m173.7 95.78a0.3969 0.3969 0 0 1 0.3496 0.4391 0.3969 0.3969 0 0 1-0.4391 0.3496 0.3969 0.3969 0 0 1-0.3496-0.4391 0.3969 0.3969 0 0 1 0.439-0.3496"/>
        <path d="m187 91.28a0.3969 0.3969 0 0 1 0.3496 0.4391 0.3969 0.3969 0 0 1-0.4391 0.3496 0.3969 0.3969 0 0 1-0.3496-0.4391 0.3969 0.3969 0 0 1 0.439-0.3496"/>
        <path d="m190.7 92.34a0.3969 0.3969 0 0 1 0.3496 0.4391 0.3969 0.3969 0 0 1-0.4391 0.3496 0.3969 0.3969 0 0 1-0.3496-0.4391 0.3969 0.3969 0 0 1 0.439-0.3496"/>
        <path d="m196.8 105.8a0.3969 0.3969 0 0 1 0.3496 0.4391 0.3969 0.3969 0 0 1-0.4391 0.3496 0.3969 0.3969 0 0 1-0.3496-0.439 0.3969 0.3969 0 0 1 0.439-0.3496"/>
        <path d="m198.9 106.9a0.3969 0.3969 0 0 1 0.3496 0.4391 0.3969 0.3969 0 0 1-0.4391 0.3496 0.3969 0.3969 0 0 1-0.3496-0.4391 0.3969 0.3969 0 0 1 0.439-0.3496"/>
        <path d="m184.3 70.38a0.3969 0.3969 0 0 1 0.3496 0.4391 0.3969 0.3969 0 0 1-0.4391 0.3496 0.3969 0.3969 0 0 1-0.3496-0.4391 0.3969 0.3969 0 0 1 0.439-0.3496"/>
        <path d="m180.1 66.41a0.3969 0.3969 0 0 1 0.3496 0.4391 0.3969 0.3969 0 0 1-0.4391 0.3496 0.3969 0.3969 0 0 1-0.3496-0.4391 0.3969 0.3969 0 0 1 0.439-0.3496"/>
        <path d="m188 67.21a0.3969 0.3969 0 0 1 0.3496 0.4391 0.3969 0.3969 0 0 1-0.4391 0.3496 0.3969 0.3969 0 0 1-0.3496-0.4391 0.3969 0.3969 0 0 1 0.439-0.3496"/>
        <path d="m190.4 68.79a0.3969 0.3969 0 0 1 0.3496 0.4391 0.3969 0.3969 0 0 1-0.4391 0.3496 0.3969 0.3969 0 0 1-0.3496-0.4391 0.3969 0.3969 0 0 1 0.439-0.3496"/>
        <path d="m197 63.77a0.3969 0.3969 0 0 1 0.3496 0.4391 0.3969 0.3969 0 0 1-0.4391 0.3496 0.3969 0.3969 0 0 1-0.3496-0.4391 0.3969 0.3969 0 0 1 0.439-0.3496"/>
        <path d="m190.9 59a0.3969 0.3969 0 0 1 0.3496 0.4391 0.3969 0.3969 0 0 1-0.4391 0.3496 0.3969 0.3969 0 0 1-0.3496-0.4391 0.3969 0.3969 0 0 1 0.439-0.3496"/>
        <path d="m186.2 60.86a0.3969 0.3969 0 0 1 0.3496 0.4391 0.3969 0.3969 0 0 1-0.4391 0.3496 0.3969 0.3969 0 0 1-0.3496-0.4391 0.3969 0.3969 0 0 1 0.439-0.3496"/>
        <path d="m198.1 53.18a0.3969 0.3969 0 0 1 0.3496 0.4391 0.3969 0.3969 0 0 1-0.4391 0.3496 0.3969 0.3969 0 0 1-0.3496-0.4391 0.3969 0.3969 0 0 1 0.439-0.3496"/>
        <path d="m193.9 52.39a0.3969 0.3969 0 0 1 0.3496 0.4391 0.3969 0.3969 0 0 1-0.4391 0.3496 0.3969 0.3969 0 0 1-0.3496-0.4391 0.3969 0.3969 0 0 1 0.439-0.3496"/>
        <path d="m189.6 49.22a0.3969 0.3969 0 0 1 0.3496 0.4391 0.3969 0.3969 0 0 1-0.4391 0.3496 0.3969 0.3969 0 0 1-0.3496-0.4391 0.3969 0.3969 0 0 1 0.439-0.3496"/>
        <path d="m201.3 50.27a0.3969 0.3969 0 0 1 0.3495 0.4391 0.3969 0.3969 0 0 1-0.4391 0.3496 0.3969 0.3969 0 0 1-0.3496-0.4391 0.3969 0.3969 0 0 1 0.439-0.3496"/>
        <path d="m201.8 42.34a0.3969 0.3969 0 0 1 0.3496 0.4391 0.3969 0.3969 0 0 1-0.4391 0.3496 0.3969 0.3969 0 0 1-0.3496-0.4391 0.3969 0.3969 0 0 1 0.439-0.3496"/>
        <path d="m214.8 55.83a0.3969 0.3969 0 0 1 0.3496 0.4391 0.3969 0.3969 0 0 1-0.4391 0.3496 0.3969 0.3969 0 0 1-0.3496-0.4391 0.3969 0.3969 0 0 1 0.439-0.3496"/>
        <path d="m211.6 49.22a0.3969 0.3969 0 0 1 0.3496 0.4391 0.3969 0.3969 0 0 1-0.4391 0.3496 0.3969 0.3969 0 0 1-0.3496-0.4391 0.3969 0.3969 0 0 1 0.439-0.3496"/>
        <path d="m215.8 63.24a0.3969 0.3969 0 0 1 0.3496 0.4391 0.3969 0.3969 0 0 1-0.4391 0.3496 0.3969 0.3969 0 0 1-0.3496-0.4391 0.3969 0.3969 0 0 1 0.439-0.3496"/>
        <path d="m213.4 72.76a0.3969 0.3969 0 0 1 0.3496 0.4391 0.3969 0.3969 0 0 1-0.4391 0.3496 0.3969 0.3969 0 0 1-0.3496-0.4391 0.3969 0.3969 0 0 1 0.439-0.3496"/>
        <path d="m187.2 40.22a0.3969 0.3969 0 0 1 0.3496 0.4391 0.3969 0.3969 0 0 1-0.4391 0.3496 0.3969 0.3969 0 0 1-0.3496-0.4391 0.3969 0.3969 0 0 1 0.439-0.3496"/>
        <path d="m187.8 36.25a0.3969 0.3969 0 0 1 0.3496 0.4391 0.3969 0.3969 0 0 1-0.4391 0.3496 0.3969 0.3969 0 0 1-0.3496-0.4391 0.3969 0.3969 0 0 1 0.439-0.3496"/>
        <path d="m193.3 33.6a0.3969 0.3969 0 0 1 0.3495 0.4391 0.3969 0.3969 0 0 1-0.4391 0.3496 0.3969 0.3969 0 0 1-0.3496-0.4391 0.3969 0.3969 0 0 1 0.439-0.3496"/>
        <path d="m196 24.87a0.3969 0.3969 0 0 1 0.3496 0.4391 0.3969 0.3969 0 0 1-0.4391 0.3496 0.3969 0.3969 0 0 1-0.3496-0.4391 0.3969 0.3969 0 0 1 0.439-0.3496"/>
        <path d="m200.5 22.76a0.3969 0.3969 0 0 1 0.3496 0.4391 0.3969 0.3969 0 0 1-0.4391 0.3496 0.3969 0.3969 0 0 1-0.3496-0.4391 0.3969 0.3969 0 0 1 0.439-0.3496"/>
        <path d="m137.5 37.84a0.3969 0.3969 0 0 1 0.3496 0.4391 0.3969 0.3969 0 0 1-0.4391 0.3496 0.3969 0.3969 0 0 1-0.3496-0.4391 0.3969 0.3969 0 0 1 0.439-0.3496"/>
        <path d="m127.2 33.6a0.3969 0.3969 0 0 1 0.3496 0.4391 0.3969 0.3969 0 0 1-0.4391 0.3496 0.3969 0.3969 0 0 1-0.3496-0.4391 0.3969 0.3969 0 0 1 0.439-0.3496"/>
        <path d="m123.7 28.31a0.3969 0.3969 0 0 1 0.3496 0.4391 0.3969 0.3969 0 0 1-0.4391 0.3496 0.3969 0.3969 0 0 1-0.3496-0.4391 0.3969 0.3969 0 0 1 0.439-0.3496"/>
        <path d="m124.8 23.82a0.3969 0.3969 0 0 1 0.3496 0.4391 0.3969 0.3969 0 0 1-0.4391 0.3496 0.3969 0.3969 0 0 1-0.3496-0.4391 0.3969 0.3969 0 0 1 0.439-0.3496"/>
        <path d="m120.6 23.55a0.3969 0.3969 0 0 1 0.3496 0.4391 0.3969 0.3969 0 0 1-0.4391 0.3496 0.3969 0.3969 0 0 1-0.3496-0.4391 0.3969 0.3969 0 0 1 0.439-0.3496"/>
        <path d="m122.7 17.73a0.3969 0.3969 0 0 1 0.3496 0.4391 0.3969 0.3969 0 0 1-0.4391 0.3496 0.3969 0.3969 0 0 1-0.3496-0.4391 0.3969 0.3969 0 0 1 0.439-0.3496"/>
        <path d="m79.82 57.15a0.3969 0.3969 0 0 1 0.3495 0.4391 0.3969 0.3969 0 0 1-0.4391 0.3496 0.3969 0.3969 0 0 1-0.3496-0.4391 0.3969 0.3969 0 0 1 0.439-0.3496"/>
        <path d="m72.41 61.65a0.3969 0.3969 0 0 1 0.3495 0.4391 0.3969 0.3969 0 0 1-0.4391 0.3496 0.3969 0.3969 0 0 1-0.3496-0.4391 0.3969 0.3969 0 0 1 0.439-0.3496"/>
        <path d="m72.41 69.32a0.3969 0.3969 0 0 1 0.3495 0.4391 0.3969 0.3969 0 0 1-0.4391 0.3496 0.3969 0.3969 0 0 1-0.3496-0.4391 0.3969 0.3969 0 0 1 0.439-0.3496"/>
        <path d="m86.7 78.05a0.3969 0.3969 0 0 1 0.3495 0.4391 0.3969 0.3969 0 0 1-0.4391 0.3496 0.3969 0.3969 0 0 1-0.3496-0.4391 0.3969 0.3969 0 0 1 0.439-0.3496"/>
        <path d="m68.97 78.05a0.3969 0.3969 0 0 1 0.3495 0.4391 0.3969 0.3969 0 0 1-0.4391 0.3496 0.3969 0.3969 0 0 1-0.3496-0.4391 0.3969 0.3969 0 0 1 0.439-0.3496"/>
        <path d="m69.23 54.77a0.3969 0.3969 0 0 1 0.3495 0.4391 0.3969 0.3969 0 0 1-0.4391 0.3496 0.3969 0.3969 0 0 1-0.3496-0.4391 0.3969 0.3969 0 0 1 0.439-0.3496"/>
        <path d="m36.95 60.86a0.3969 0.3969 0 0 1 0.3495 0.4391 0.3969 0.3969 0 0 1-0.4391 0.3496 0.3969 0.3969 0 0 1-0.3496-0.4391 0.3969 0.3969 0 0 1 0.439-0.3496"/>
        <path d="m41.98 54.77a0.3969 0.3969 0 0 1 0.3495 0.4391 0.3969 0.3969 0 0 1-0.4391 0.3496 0.3969 0.3969 0 0 1-0.3496-0.4391 0.3969 0.3969 0 0 1 0.439-0.3496"/>
        <path d="m50.45 54.77a0.3969 0.3969 0 0 1 0.3495 0.4391 0.3969 0.3969 0 0 1-0.4391 0.3496 0.3969 0.3969 0 0 1-0.3496-0.4391 0.3969 0.3969 0 0 1 0.439-0.3496"/>
        <path d="m57.33 46.3a0.3969 0.3969 0 0 1 0.3495 0.4391 0.3969 0.3969 0 0 1-0.4391 0.3496 0.3969 0.3969 0 0 1-0.3496-0.4391 0.3969 0.3969 0 0 1 0.439-0.3496"/>
        <path d="m46.21 43.66a0.3969 0.3969 0 0 1 0.3495 0.4391 0.3969 0.3969 0 0 1-0.4391 0.3496 0.3969 0.3969 0 0 1-0.3496-0.4391 0.3969 0.3969 0 0 1 0.439-0.3496"/>
        <path d="m47.01 39.69a0.3969 0.3969 0 0 1 0.3495 0.4391 0.3969 0.3969 0 0 1-0.4391 0.3496 0.3969 0.3969 0 0 1-0.3496-0.4391 0.3969 0.3969 0 0 1 0.439-0.3496"/>
        <path d="m52.83 37.57a0.3969 0.3969 0 0 1 0.3495 0.4391 0.3969 0.3969 0 0 1-0.4391 0.3496 0.3969 0.3969 0 0 1-0.3496-0.4391 0.3969 0.3969 0 0 1 0.439-0.3496"/>
        <path d="m56 29.11a0.3969 0.3969 0 0 1 0.3495 0.4391 0.3969 0.3969 0 0 1-0.4391 0.3496 0.3969 0.3969 0 0 1-0.3496-0.4391 0.3969 0.3969 0 0 1 0.439-0.3496"/>
        <path d="m61.3 27.78a0.3969 0.3969 0 0 1 0.3495 0.4391 0.3969 0.3969 0 0 1-0.4391 0.3496 0.3969 0.3969 0 0 1-0.3496-0.4391 0.3969 0.3969 0 0 1 0.439-0.3496"/>
        <path d="m72.14 21.96a0.3969 0.3969 0 0 1 0.3495 0.4391 0.3969 0.3969 0 0 1-0.4391 0.3496 0.3969 0.3969 0 0 1-0.3496-0.4391 0.3969 0.3969 0 0 1 0.439-0.3496"/>
        <path d="m77.7 16.94a0.3969 0.3969 0 0 1 0.3495 0.4391 0.3969 0.3969 0 0 1-0.4391 0.3496 0.3969 0.3969 0 0 1-0.3496-0.4391 0.3969 0.3969 0 0 1 0.439-0.3496"/>
        <path d="m23.99 52.92a0.3969 0.3969 0 0 1 0.3495 0.4391 0.3969 0.3969 0 0 1-0.4391 0.3496 0.3969 0.3969 0 0 1-0.3496-0.4391 0.3969 0.3969 0 0 1 0.439-0.3496"/>
        <path d="m23.46 40.22a0.3969 0.3969 0 0 1 0.3495 0.4391 0.3969 0.3969 0 0 1-0.4391 0.3496 0.3969 0.3969 0 0 1-0.3496-0.4391 0.3969 0.3969 0 0 1 0.439-0.3496"/>
        <path d="m14.99 39.95a0.3969 0.3969 0 0 1 0.3495 0.4391 0.3969 0.3969 0 0 1-0.4391 0.3496 0.3969 0.3969 0 0 1-0.3496-0.4391 0.3969 0.3969 0 0 1 0.439-0.3496"/>
        <path d="m17.42 54.58a0.3969 0.3969 0 0 1 0.3495 0.4391 0.3969 0.3969 0 0 1-0.4391 0.3496 0.3969 0.3969 0 0 1-0.3496-0.4391 0.3969 0.3969 0 0 1 0.439-0.3496"/>
        <path d="m13.94 59.8a0.3969 0.3969 0 0 1 0.3495 0.4391 0.3969 0.3969 0 0 1-0.4391 0.3496 0.3969 0.3969 0 0 1-0.3496-0.4391 0.3969 0.3969 0 0 1 0.439-0.3496"/>
        <path d="m9.92 66.02a0.3969 0.3969 0 0 1 0.3495 0.4391 0.3969 0.3969 0 0 1-0.4391 0.3496 0.3969 0.3969 0 0 1-0.3496-0.4391 0.3969 0.3969 0 0 1 0.439-0.3496"/>
        <path d="m9.437 73.03a0.3969 0.3969 0 0 1 0.3495 0.4391 0.3969 0.3969 0 0 1-0.4391 0.3496 0.3969 0.3969 0 0 1-0.3496-0.4391 0.3969 0.3969 0 0 1 0.439-0.3496"/>
    </g>
    <g id="path" opacity=".1" stroke="#fff" stroke-width=".1984">
        <path transform="translate(-2.682 -16.47)" d="m154.8 94.17-3.377-0.5189"/>
        <path transform="translate(-2.682 -16.47)" d="m150.4 93.43-3.614-0.3648"/>
        <path transform="translate(-2.682 -16.47)" d="m145.8 92.56-0.224-0.4215"/>
        <path transform="translate(-2.682 -16.47)" d="m145.5 91.21 0.3324-1.454"/>
        <path transform="translate(-2.682 -16.47)" d="m145.6 88.95-0.6556-0.4516"/>
        <path transform="translate(-2.682 -16.47)" d="m144.2 88.51-1.104 0.9804"/>
        <path transform="translate(-2.682 -16.47)" d="m142.9 90.28 0.602 1.062"/>
        <path transform="translate(-2.682 -16.47)" d="m155.6 93.91 0.2412-0.9998"/>
        <path transform="translate(-2.682 -16.47)" d="m156.4 92.1 2.317-2.537"/>
        <path transform="translate(-2.682 -16.47)" d="m159.6 89.25 5.581 5.3e-4"/>
        <path transform="translate(-2.682 -16.47)" d="m165.9 89.83 0.5113 2.691"/>
        <path transform="translate(-2.682 -16.47)" d="m167 93.03 3.49-0.2491"/>
        <path transform="translate(-2.682 -16.47)" d="m171.4 93.09 2.014 2.679"/>
        <path transform="translate(-2.682 -16.47)" d="m174.2 96.03 12.29-4.139"/>
        <path transform="translate(-2.682 -16.47)" d="m187.4 91.77 2.775 0.6936"/>
        <path transform="translate(-2.682 -16.47)" d="m190.8 93.17 5.618 12.67"/>
        <path transform="translate(-2.682 -16.47)" d="m197.1 106.5 1.349 0.591"/>
        <path transform="translate(-2.682 -16.47)" d="m121.4 96.48 0.2366-9.724"/>
        <path transform="translate(-2.682 -16.47)" d="m121.2 86.24-10.31 0.4998"/>
        <path transform="translate(-2.682 -16.47)" d="m110.3 87.16 0.6261 10.5"/>
        <path transform="translate(-2.682 -16.47)" d="m111.5 98.22 9.274-1.134"/>
        <path transform="translate(-2.682 -16.47)" d="m110.5 86.25 5.109-9.683"/>
        <path transform="translate(-2.682 -16.47)" d="m116.2 76.57 5.254 9.108"/>
        <path transform="translate(-2.682 -16.47)" d="m121.9 71.35-6.773-0.07849"/>
        <path transform="translate(-2.682 -16.47)" d="m114.8 70.78 1.193-6.444"/>
        <path transform="translate(-2.682 -16.47)" d="m115.8 63.65-4.865-4.575"/>
        <path transform="translate(-2.682 -16.47)" d="m110.8 58.31 1.25-7.916"/>
        <path transform="translate(-2.682 -16.47)" d="m137.8 63.95 4.787 2.398"/>
        <path transform="translate(-2.682 -16.47)" d="m143.4 66.38 8.567-1.931"/>
        <path transform="translate(-2.682 -16.47)" d="m152.7 64.78 5.637 9.128"/>
        <path transform="translate(-2.682 -16.47)" d="m158.9 73.86 5.041-7.906"/>
        <path transform="translate(-2.682 -16.47)" d="m163.8 65.15-8.461-6.09"/>
        <path transform="translate(-2.682 -16.47)" d="m154.8 59.23-2.095 4.593"/>
        <path transform="translate(-2.682 -16.47)" d="m154.8 58.35-2.438-6.623"/>
        <path transform="translate(-2.682 -16.47)" d="m151.6 51.16-5.451-1.921"/>
        <path transform="translate(-2.682 -16.47)" d="m180.4 66.5 5.314-4.962"/>
        <path transform="translate(-2.682 -16.47)" d="m184.6 70.43 2.937-2.558"/>
        <path transform="translate(-2.682 -16.47)" d="m188.4 67.83 1.563 1.136"/>
        <path transform="translate(-2.682 -16.47)" d="m190.8 69.02 5.813-4.593"/>
        <path transform="translate(-2.682 -16.47)" d="m196.6 63.79-5.345-4.107"/>
        <path transform="translate(-2.682 -16.47)" d="m190.4 59.64-3.855 1.43"/>
        <path transform="translate(-2.682 -16.47)" d="m191.1 58.94 2.459-5.699"/>
        <path transform="translate(-2.682 -16.47)" d="m194.3 52.92 3.259 0.5525"/>
        <path transform="translate(-2.682 -16.47)" d="m198.1 54.05-1.024 9.615"/>
        <path transform="translate(-2.682 -16.47)" d="m189.9 49.88 3.506 2.617"/>
        <path transform="translate(-2.682 -16.47)" d="m198.5 53.31 2.38-2.359"/>
        <path transform="translate(-2.682 -16.47)" d="m201.2 50.24 0.4628-6.969"/>
        <path transform="translate(-2.682 -16.47)" d="m187.3 40.19 0.3501-3.049"/>
        <path transform="translate(-2.682 -16.47)" d="m188.2 36.35 4.703-2.112"/>
        <path transform="translate(-2.682 -16.47)" d="m193.6 33.63 2.038-7.939"/>
        <path transform="translate(-2.682 -16.47)" d="m196.4 25.03 3.683-1.549"/>
        <path transform="translate(-2.682 -16.47)" d="m211.8 50 2.677 5.79"/>
        <path transform="translate(-2.682 -16.47)" d="m214.8 56.71 0.8235 6.455"/>
        <path transform="translate(-2.682 -16.47)" d="m215.7 64.12-2.159 8.568"/>
        <path transform="translate(-2.682 -16.47)" d="m127.6 34.19 9.377 3.844"/>
        <path transform="translate(-2.682 -16.47)" d="m124 29.2 2.761 4.375"/>
        <path transform="translate(-2.682 -16.47)" d="m123.9 28.17 0.8125-3.494"/>
        <path transform="translate(-2.682 -16.47)" d="m123.4 28.24-2.804-3.817"/>
        <path transform="translate(-2.682 -16.47)" d="m120.7 23.45 1.872-4.819"/>
        <path transform="translate(-2.682 -16.47)" d="m122.9 18.56 1.696 5.11"/>
        <path transform="translate(-2.682 -16.47)" d="m86.26 78.19-13.5-8.174"/>
        <path transform="translate(-2.682 -16.47)" d="m72.21 70.17-3.07 7.858"/>
        <path transform="translate(-2.682 -16.47)" d="m72.36 69.14-0.0054-6.622"/>
        <path transform="translate(-2.682 -16.47)" d="m72.78 61.7 6.624-3.846"/>
        <path transform="translate(-2.682 -16.47)" d="m72.09 61.65-2.672-6.085"/>
        <path transform="translate(-2.682 -16.47)" d="m50 55.4-12.66 5.732"/>
        <path transform="translate(-2.682 -16.47)" d="m37.16 60.82 4.424-5.324"/>
        <path transform="translate(-2.682 -16.47)" d="m42.42 55.15 7.466-0.04506"/>
        <path transform="translate(-2.682 -16.47)" d="m50.74 54.86 6.241-7.847"/>
        <path transform="translate(-2.682 -16.47)" d="m9.4 72.97 0.4949-6.097"/>
        <path transform="translate(-2.682 -16.47)" d="m10.13 66.05 3.489-5.498"/>
        <path transform="translate(-2.682 -16.47)" d="m14.19 59.81 2.902-4.459"/>
        <path transform="translate(-2.682 -16.47)" d="m17.85 54.99 5.658-1.475"/>
        <path transform="translate(-2.682 -16.47)" d="m23.89 52.87-0.4464-11.81"/>
        <path transform="translate(-2.682 -16.47)" d="m22.92 40.62-7.516-0.2335"/>
        <path transform="translate(-2.682 -16.47)" d="m14.96 40.83 2.303 13.69"/>
        <path transform="translate(-2.682 -16.47)" d="m46.31 43.58 0.5592-3.045"/>
        <path transform="translate(-2.682 -16.47)" d="m47.42 39.97 4.98-1.84"/>
        <path transform="translate(-2.682 -16.47)" d="m53.05 37.62 2.712-7.746"/>
        <path transform="translate(-2.682 -16.47)" d="m56.4 29.4 4.412-1.156"/>
        <path transform="translate(-2.682 -16.47)" d="m61.7 28.06 10.02-5.465"/>
        <path transform="translate(-2.682 -16.47)" d="m72.52 22.1 4.836-4.426"/>
        <path transform="translate(-2.682 -16.47)" d="m215.1 55.95 6.381-4.799"/>
        <path transform="translate(-2.682 -16.47)" d="m216.2 63.93 5.145 2.48"/>
        <path transform="translate(-2.682 -16.47)" d="m200.9 22.99 10.1-6.828"/>
    </g>
    <g id="randomStars" transform="translate(-2.646 -16.45)" fill="#fff" stroke-width=".1609">
        <path d="m48.45 89.12a0.3307 0.3307 0 0 1 0.2913 0.3659 0.3307 0.3307 0 0 1-0.3659 0.2913 0.3307 0.3307 0 0 1-0.2913-0.3659 0.3307 0.3307 0 0 1 0.3659-0.2914"/>
        <path d="m42.7 89.96a0.3307 0.3307 0 0 1 0.2913 0.3659 0.3307 0.3307 0 0 1-0.3659 0.2913 0.3307 0.3307 0 0 1-0.2913-0.3659 0.3307 0.3307 0 0 1 0.3659-0.2914"/>
        <path d="m68.37 99.22a0.3307 0.3307 0 0 1 0.2913 0.3659 0.3307 0.3307 0 0 1-0.3659 0.2913 0.3307 0.3307 0 0 1-0.2913-0.3659 0.3307 0.3307 0 0 1 0.3659-0.2914"/>
        <path d="m77.36 84.14a0.3307 0.3307 0 0 1 0.2913 0.3659 0.3307 0.3307 0 0 1-0.3659 0.2913 0.3307 0.3307 0 0 1-0.2913-0.3659 0.3307 0.3307 0 0 1 0.3659-0.2914"/>
        <path d="m84.24 113.8a0.3307 0.3307 0 0 1 0.2913 0.3659 0.3307 0.3307 0 0 1-0.3659 0.2913 0.3307 0.3307 0 0 1-0.2913-0.3659 0.3307 0.3307 0 0 1 0.3659-0.2914"/>
        <path d="m65.46 66.94a0.3307 0.3307 0 0 1 0.2913 0.3659 0.3307 0.3307 0 0 1-0.3659 0.2913 0.3307 0.3307 0 0 1-0.2913-0.3659 0.3307 0.3307 0 0 1 0.3659-0.2914"/>
        <path d="m46.27 74.35a0.1805 0.1805 0 0 1 0.159 0.1997 0.1805 0.1805 0 0 1-0.1997 0.159 0.1805 0.1805 0 0 1-0.159-0.1997 0.1805 0.1805 0 0 1 0.1997-0.159" stroke-width=".08782"/>
        <g stroke-width=".08782">
            <path d="m88.85 67.45a0.1805 0.1805 0 0 1 0.159 0.1997 0.1805 0.1805 0 0 1-0.1997 0.159 0.1805 0.1805 0 0 1-0.159-0.1997 0.1805 0.1805 0 0 1 0.1997-0.159"/>
            <path d="m132.8 74.45a0.1805 0.1805 0 0 1 0.159 0.1997 0.1805 0.1805 0 0 1-0.1997 0.159 0.1805 0.1805 0 0 1-0.159-0.1997 0.1805 0.1805 0 0 1 0.1997-0.159"/>
            <path d="m138.8 56.45a0.1805 0.1805 0 0 1 0.159 0.1997 0.1805 0.1805 0 0 1-0.1997 0.159 0.1805 0.1805 0 0 1-0.159-0.1997 0.1805 0.1805 0 0 1 0.1997-0.159"/>
            <path d="m162.8 54.45a0.1805 0.1805 0 0 1 0.159 0.1997 0.1805 0.1805 0 0 1-0.1997 0.159 0.1805 0.1805 0 0 1-0.159-0.1997 0.1805 0.1805 0 0 1 0.1997-0.159"/>
            <path d="m162.8 20.45a0.1805 0.1805 0 0 1 0.159 0.1997 0.1805 0.1805 0 0 1-0.1997 0.159 0.1805 0.1805 0 0 1-0.159-0.1997 0.1805 0.1805 0 0 1 0.1997-0.159"/>
            <path d="m183.8 27.45a0.1805 0.1805 0 0 1 0.159 0.1997 0.1805 0.1805 0 0 1-0.1997 0.159 0.1805 0.1805 0 0 1-0.159-0.1997 0.1805 0.1805 0 0 1 0.1997-0.159"/>
            <path d="m199.8 67.45a0.1805 0.1805 0 0 1 0.159 0.1997 0.1805 0.1805 0 0 1-0.1997 0.159 0.1805 0.1805 0 0 1-0.159-0.1997 0.1805 0.1805 0 0 1 0.1997-0.159"/>
            <path d="m50.85 33.45a0.1805 0.1805 0 0 1 0.159 0.1997 0.1805 0.1805 0 0 1-0.1997 0.159 0.1805 0.1805 0 0 1-0.159-0.1997 0.1805 0.1805 0 0 1 0.1997-0.159"/>
        </g>
        <path d="m32.38 70.12a0.3307 0.3307 0 0 1 0.2913 0.3659 0.3307 0.3307 0 0 1-0.3659 0.2913 0.3307 0.3307 0 0 1-0.2913-0.3659 0.3307 0.3307 0 0 1 0.3659-0.2914"/>
        <path d="m27.36 78.05a0.3307 0.3307 0 0 1 0.2913 0.3659 0.3307 0.3307 0 0 1-0.3659 0.2913 0.3307 0.3307 0 0 1-0.2913-0.3659 0.3307 0.3307 0 0 1 0.3659-0.2914"/>
        <path d="m25.24 81.76a0.3307 0.3307 0 0 1 0.2913 0.3659 0.3307 0.3307 0 0 1-0.3659 0.2913 0.3307 0.3307 0 0 1-0.2913-0.3659 0.3307 0.3307 0 0 1 0.3659-0.2914"/>
        <path d="m12.27 76.47a0.3307 0.3307 0 0 1 0.2913 0.3659 0.3307 0.3307 0 0 1-0.3659 0.2913 0.3307 0.3307 0 0 1-0.2913-0.3659 0.3307 0.3307 0 0 1 0.3659-0.2914"/>
        <path d="m9.893 86.26a0.3307 0.3307 0 0 1 0.2913 0.3659 0.3307 0.3307 0 0 1-0.3659 0.2913 0.3307 0.3307 0 0 1-0.2913-0.3659 0.3307 0.3307 0 0 1 0.3659-0.2914"/>
        <path d="m6.718 105.8a0.3307 0.3307 0 0 1 0.2913 0.3659 0.3307 0.3307 0 0 1-0.3659 0.2913 0.3307 0.3307 0 0 1-0.2913-0.3659 0.3307 0.3307 0 0 1 0.3659-0.2914"/>
        <path d="m4.072 71.7a0.3307 0.3307 0 0 1 0.2913 0.3659 0.3307 0.3307 0 0 1-0.3659 0.2913 0.3307 0.3307 0 0 1-0.2913-0.3659 0.3307 0.3307 0 0 1 0.3659-0.2914"/>
        <path d="m8.835 49.74a0.3307 0.3307 0 0 1 0.2913 0.3659 0.3307 0.3307 0 0 1-0.3659 0.2913 0.3307 0.3307 0 0 1-0.2913-0.3659 0.3307 0.3307 0 0 1 0.3659-0.2914"/>
        <path d="m9.628 31.49a0.3307 0.3307 0 0 1 0.2913 0.3659 0.3307 0.3307 0 0 1-0.3659 0.2913 0.3307 0.3307 0 0 1-0.2913-0.3659 0.3307 0.3307 0 0 1 0.3659-0.2914"/>
        <path d="m3.014 32.81a0.3307 0.3307 0 0 1 0.2913 0.3659 0.3307 0.3307 0 0 1-0.3659 0.2913 0.3307 0.3307 0 0 1-0.2913-0.3659 0.3307 0.3307 0 0 1 0.3659-0.2914"/>
        <path d="m4.072 21.7a0.3307 0.3307 0 0 1 0.2913 0.3659 0.3307 0.3307 0 0 1-0.3659 0.2913 0.3307 0.3307 0 0 1-0.2913-0.3659 0.3307 0.3307 0 0 1 0.3659-0.2914"/>
        <path d="m31.32 29.64a0.3307 0.3307 0 0 1 0.2913 0.3659 0.3307 0.3307 0 0 1-0.3659 0.2913 0.3307 0.3307 0 0 1-0.2913-0.3659 0.3307 0.3307 0 0 1 0.3659-0.2914"/>
        <path d="m32.12 23.55a0.3307 0.3307 0 0 1 0.2913 0.3659 0.3307 0.3307 0 0 1-0.3659 0.2913 0.3307 0.3307 0 0 1-0.2913-0.3659 0.3307 0.3307 0 0 1 0.3659-0.2914"/>
        <path d="m40.85 22.23a0.3307 0.3307 0 0 1 0.2913 0.3659 0.3307 0.3307 0 0 1-0.3659 0.2913 0.3307 0.3307 0 0 1-0.2913-0.3659 0.3307 0.3307 0 0 1 0.3659-0.2914"/>
        <path d="m59.11 20.38a0.3307 0.3307 0 0 1 0.2913 0.3659 0.3307 0.3307 0 0 1-0.3659 0.2913 0.3307 0.3307 0 0 1-0.2913-0.3659 0.3307 0.3307 0 0 1 0.3659-0.2914"/>
        <path d="m48.52 52.13a0.3307 0.3307 0 0 1 0.2913 0.3659 0.3307 0.3307 0 0 1-0.3659 0.2913 0.3307 0.3307 0 0 1-0.2913-0.3659 0.3307 0.3307 0 0 1 0.3659-0.2914"/>
        <path d="m66.51 39.69a0.3307 0.3307 0 0 1 0.2913 0.3659 0.3307 0.3307 0 0 1-0.3659 0.2913 0.3307 0.3307 0 0 1-0.2913-0.3659 0.3307 0.3307 0 0 1 0.3659-0.2914"/>
        <path d="m72.07 46.04a0.3307 0.3307 0 0 1 0.2913 0.3659 0.3307 0.3307 0 0 1-0.3659 0.2913 0.3307 0.3307 0 0 1-0.2913-0.3659 0.3307 0.3307 0 0 1 0.3659-0.2914"/>
        <path d="m77.1 33.6a0.3307 0.3307 0 0 1 0.2913 0.3659 0.3307 0.3307 0 0 1-0.3659 0.2913 0.3307 0.3307 0 0 1-0.2913-0.3659 0.3307 0.3307 0 0 1 0.3659-0.2914"/>
        <path d="m83.71 47.89a0.3307 0.3307 0 0 1 0.2913 0.3659 0.3307 0.3307 0 0 1-0.3659 0.2913 0.3307 0.3307 0 0 1-0.2913-0.3659 0.3307 0.3307 0 0 1 0.3659-0.2914"/>
        <path d="m90.86 44.72a0.3307 0.3307 0 0 1 0.2913 0.3659 0.3307 0.3307 0 0 1-0.3659 0.2913 0.3307 0.3307 0 0 1-0.2913-0.3659 0.3307 0.3307 0 0 1 0.3659-0.2914"/>
        <path d="m96.41 43.39a0.3307 0.3307 0 0 1 0.2913 0.3659 0.3307 0.3307 0 0 1-0.3659 0.2913 0.3307 0.3307 0 0 1-0.2913-0.3659 0.3307 0.3307 0 0 1 0.3659-0.2914"/>
        <path d="m85.56 38.1a0.3307 0.3307 0 0 1 0.2913 0.3659 0.3307 0.3307 0 0 1-0.3659 0.2913 0.3307 0.3307 0 0 1-0.2913-0.3659 0.3307 0.3307 0 0 1 0.3659-0.2914"/>
        <path d="m93.07 34.93a0.2153 0.2153 0 0 1 0.1897 0.2383 0.2153 0.2153 0 0 1-0.2383 0.1897 0.2153 0.2153 0 0 1-0.1897-0.2383 0.2153 0.2153 0 0 1 0.2383-0.1897" stroke-width=".1048"/>
        <path d="m90.14 34.93a0.2153 0.2153 0 0 1 0.1897 0.2383 0.2153 0.2153 0 0 1-0.2383 0.1897 0.2153 0.2153 0 0 1-0.1897-0.2383 0.2153 0.2153 0 0 1 0.2383-0.1897" stroke-width=".1048"/>
        <path d="m96.59 38.1a0.1305 0.1305 0 0 1 0.1149 0.1444 0.1305 0.1305 0 0 1-0.1444 0.1149 0.1305 0.1305 0 0 1-0.1149-0.1444 0.1305 0.1305 0 0 1 0.1444-0.115" stroke-width=".06349"/>
        <path d="m90.95 41.28a0.2305 0.2305 0 0 1 0.203 0.255 0.2305 0.2305 0 0 1-0.255 0.203 0.2305 0.2305 0 0 1-0.203-0.255 0.2305 0.2305 0 0 1 0.255-0.2031" stroke-width=".1121"/>
        <path d="m85.03 24.08a0.3307 0.3307 0 0 1 0.2913 0.3659 0.3307 0.3307 0 0 1-0.3659 0.2913 0.3307 0.3307 0 0 1-0.2913-0.3659 0.3307 0.3307 0 0 1 0.3659-0.2914"/>
        <path d="m100.9 30.43a0.3307 0.3307 0 0 1 0.2913 0.3659 0.3307 0.3307 0 0 1-0.3659 0.2913 0.3307 0.3307 0 0 1-0.2913-0.3659 0.3307 0.3307 0 0 1 0.3659-0.2914"/>
        <path d="m109.1 38.1a0.3307 0.3307 0 0 1 0.2913 0.3659 0.3307 0.3307 0 0 1-0.3659 0.2913 0.3307 0.3307 0 0 1-0.2914-0.3659 0.3307 0.3307 0 0 1 0.3659-0.2914"/>
        <path d="m96.68 51.86a0.3307 0.3307 0 0 1 0.2913 0.3659 0.3307 0.3307 0 0 1-0.3659 0.2913 0.3307 0.3307 0 0 1-0.2913-0.3659 0.3307 0.3307 0 0 1 0.3659-0.2914"/>
        <path d="m119.7 48.16a0.3307 0.3307 0 0 1 0.2913 0.3659 0.3307 0.3307 0 0 1-0.3659 0.2913 0.3307 0.3307 0 0 1-0.2914-0.3659 0.3307 0.3307 0 0 1 0.3659-0.2914"/>
        <path d="m119.2 32.28a0.3307 0.3307 0 0 1 0.2913 0.3659 0.3307 0.3307 0 0 1-0.3659 0.2913 0.3307 0.3307 0 0 1-0.2914-0.3659 0.3307 0.3307 0 0 1 0.3659-0.2914"/>
        <path d="m115.5 26.73a0.3307 0.3307 0 0 1 0.2913 0.3659 0.3307 0.3307 0 0 1-0.3659 0.2913 0.3307 0.3307 0 0 1-0.2914-0.3659 0.3307 0.3307 0 0 1 0.3659-0.2914"/>
        <path d="m100.9 66.15a0.3307 0.3307 0 0 1 0.2913 0.3659 0.3307 0.3307 0 0 1-0.3659 0.2913 0.3307 0.3307 0 0 1-0.2913-0.3659 0.3307 0.3307 0 0 1 0.3659-0.2914"/>
        <path d="m109.9 74.88a0.3307 0.3307 0 0 1 0.2913 0.3659 0.3307 0.3307 0 0 1-0.3659 0.2913 0.3307 0.3307 0 0 1-0.2913-0.3659 0.3307 0.3307 0 0 1 0.3659-0.2914"/>
        <path d="m131.3 64.56a0.3307 0.3307 0 0 1 0.2913 0.3659 0.3307 0.3307 0 0 1-0.3659 0.2913 0.3307 0.3307 0 0 1-0.2913-0.3659 0.3307 0.3307 0 0 1 0.3659-0.2914"/>
        <path d="m125.3 84.4a0.3307 0.3307 0 0 1 0.2913 0.3659 0.3307 0.3307 0 0 1-0.3659 0.2913 0.3307 0.3307 0 0 1-0.2914-0.3659 0.3307 0.3307 0 0 1 0.3659-0.2914"/>
        <path d="m148 72.5a0.3307 0.3307 0 0 1 0.2913 0.3659 0.3307 0.3307 0 0 1-0.3659 0.2913 0.3307 0.3307 0 0 1-0.2913-0.3659 0.3307 0.3307 0 0 1 0.3659-0.2914"/>
        <path d="m144.6 100a0.3307 0.3307 0 0 1 0.2913 0.3659 0.3307 0.3307 0 0 1-0.3659 0.2913 0.3307 0.3307 0 0 1-0.2913-0.3659 0.3307 0.3307 0 0 1 0.3659-0.2914"/>
        <path d="m158.3 104.5a0.3307 0.3307 0 0 1 0.2913 0.3659 0.3307 0.3307 0 0 1-0.3659 0.2913 0.3307 0.3307 0 0 1-0.2913-0.3659 0.3307 0.3307 0 0 1 0.3659-0.2914"/>
        <path d="m136.9 25.93a0.3307 0.3307 0 0 1 0.2913 0.3659 0.3307 0.3307 0 0 1-0.3659 0.2913 0.3307 0.3307 0 0 1-0.2914-0.3659 0.3307 0.3307 0 0 1 0.3659-0.2914"/>
        <path d="m143 22.49a0.3307 0.3307 0 0 1 0.2913 0.3659 0.3307 0.3307 0 0 1-0.3659 0.2913 0.3307 0.3307 0 0 1-0.2914-0.3659 0.3307 0.3307 0 0 1 0.3659-0.2914"/>
        <path d="m149.3 28.58a0.3307 0.3307 0 0 1 0.2913 0.3659 0.3307 0.3307 0 0 1-0.3659 0.2913 0.3307 0.3307 0 0 1-0.2914-0.3659 0.3307 0.3307 0 0 1 0.3659-0.2914"/>
        <path d="m143.2 42.86a0.3307 0.3307 0 0 1 0.2913 0.3659 0.3307 0.3307 0 0 1-0.3659 0.2913 0.3307 0.3307 0 0 1-0.2913-0.3659 0.3307 0.3307 0 0 1 0.3659-0.2914"/>
        <path d="m171.3 27.25a0.3307 0.3307 0 0 1 0.2913 0.3659 0.3307 0.3307 0 0 1-0.3659 0.2913 0.3307 0.3307 0 0 1-0.2914-0.3659 0.3307 0.3307 0 0 1 0.3659-0.2914"/>
        <path d="m179.8 19.58a0.3307 0.3307 0 0 1 0.2913 0.3659 0.3307 0.3307 0 0 1-0.3659 0.2913 0.3307 0.3307 0 0 1-0.2913-0.3659 0.3307 0.3307 0 0 1 0.3659-0.2914"/>
        <path d="m184.5 46.3a0.3307 0.3307 0 0 1 0.2913 0.3659 0.3307 0.3307 0 0 1-0.3659 0.2913 0.3307 0.3307 0 0 1-0.2914-0.3659 0.3307 0.3307 0 0 1 0.3659-0.2914"/>
        <path d="m190.1 47.63a0.3307 0.3307 0 0 1 0.2913 0.3659 0.3307 0.3307 0 0 1-0.3659 0.2913 0.3307 0.3307 0 0 1-0.2913-0.3659 0.3307 0.3307 0 0 1 0.3659-0.2914"/>
        <path d="m176.1 67.47a0.3307 0.3307 0 0 1 0.2913 0.3659 0.3307 0.3307 0 0 1-0.3659 0.2913 0.3307 0.3307 0 0 1-0.2914-0.3659 0.3307 0.3307 0 0 1 0.3659-0.2914"/>
        <path d="m189.5 70.65a0.3307 0.3307 0 0 1 0.2913 0.3659 0.3307 0.3307 0 0 1-0.3659 0.2913 0.3307 0.3307 0 0 1-0.2913-0.3659 0.3307 0.3307 0 0 1 0.3659-0.2914"/>
        <path d="m180.3 79.38a0.3307 0.3307 0 0 1 0.2913 0.3659 0.3307 0.3307 0 0 1-0.3659 0.2913 0.3307 0.3307 0 0 1-0.2913-0.3659 0.3307 0.3307 0 0 1 0.3659-0.2914"/>
        <path d="m163.9 74.61a0.3307 0.3307 0 0 1 0.2913 0.3659 0.3307 0.3307 0 0 1-0.3659 0.2913 0.3307 0.3307 0 0 1-0.2913-0.3659 0.3307 0.3307 0 0 1 0.3659-0.2914"/>
        <path d="m183.7 88.9a0.3307 0.3307 0 0 1 0.2913 0.3659 0.3307 0.3307 0 0 1-0.3659 0.2913 0.3307 0.3307 0 0 1-0.2913-0.3659 0.3307 0.3307 0 0 1 0.3659-0.2914"/>
        <path d="m198.8 90.75a0.3307 0.3307 0 0 1 0.2913 0.3659 0.3307 0.3307 0 0 1-0.3659 0.2913 0.3307 0.3307 0 0 1-0.2913-0.3659 0.3307 0.3307 0 0 1 0.3658-0.2914"/>
        <path d="m211.5 76.73a0.3307 0.3307 0 0 1 0.2913 0.3659 0.3307 0.3307 0 0 1-0.3659 0.2913 0.3307 0.3307 0 0 1-0.2913-0.3659 0.3307 0.3307 0 0 1 0.3659-0.2914"/>
        <path d="m210.4 108.5a0.3307 0.3307 0 0 1 0.2913 0.3659 0.3307 0.3307 0 0 1-0.3659 0.2913 0.3307 0.3307 0 0 1-0.2914-0.3659 0.3307 0.3307 0 0 1 0.3659-0.2914"/>
        <path d="m208.6 61.12a0.3307 0.3307 0 0 1 0.2913 0.3659 0.3307 0.3307 0 0 1-0.3659 0.2913 0.3307 0.3307 0 0 1-0.2913-0.3659 0.3307 0.3307 0 0 1 0.3659-0.2914"/>
        <path d="m201.7 59a0.3307 0.3307 0 0 1 0.2913 0.3659 0.3307 0.3307 0 0 1-0.3659 0.2913 0.3307 0.3307 0 0 1-0.2913-0.3659 0.3307 0.3307 0 0 1 0.3659-0.2914"/>
        <path d="m213.1 39.95a0.3307 0.3307 0 0 1 0.2913 0.3659 0.3307 0.3307 0 0 1-0.3659 0.2913 0.3307 0.3307 0 0 1-0.2913-0.3659 0.3307 0.3307 0 0 1 0.3659-0.2914"/>
        <path d="m205.7 35.99a0.3307 0.3307 0 0 1 0.2913 0.3659 0.3307 0.3307 0 0 1-0.3659 0.2913 0.3307 0.3307 0 0 1-0.2913-0.3659 0.3307 0.3307 0 0 1 0.3659-0.2914"/>
        <path d="m201.7 31.49a0.3307 0.3307 0 0 1 0.2913 0.3659 0.3307 0.3307 0 0 1-0.3659 0.2913 0.3307 0.3307 0 0 1-0.2913-0.3659 0.3307 0.3307 0 0 1 0.3659-0.2914"/>
        <path d="m213.6 20.64a0.3307 0.3307 0 0 1 0.2913 0.3659 0.3307 0.3307 0 0 1-0.3659 0.2913 0.3307 0.3307 0 0 1-0.2913-0.3659 0.3307 0.3307 0 0 1 0.3659-0.2914"/>
        <path d="m197.7 18.26a0.3307 0.3307 0 0 1 0.2913 0.3659 0.3307 0.3307 0 0 1-0.3659 0.2913 0.3307 0.3307 0 0 1-0.2913-0.3659 0.3307 0.3307 0 0 1 0.3659-0.2914"/>
        <path transform="translate(2.646,16.45)" d="m169.4 35a0.3307 0.3307 0 0 1 0.2913 0.3659 0.3307 0.3307 0 0 1-0.3659 0.2913 0.3307 0.3307 0 0 1-0.2913-0.3659 0.3307 0.3307 0 0 1 0.3659-0.2914"/>
        <path transform="translate(2.646,16.45)" d="m157.4 26a0.3307 0.3307 0 0 1 0.2913 0.3659 0.3307 0.3307 0 0 1-0.3659 0.2913 0.3307 0.3307 0 0 1-0.2913-0.3659 0.3307 0.3307 0 0 1 0.3659-0.2914"/>
    </g>
</svg>
