<?xml version="1.0" encoding="UTF-8"?>
<svg id="visual" version="1.1" viewBox="0 0 139 900" xmlns="http://www.w3.org/2000/svg">
			<path id="path1" d="m4.044 900-1.7-30c-1.6-30-5-90 1.4-150 6.3-60 22.3-120 33.3-180s17-120 13.2-180c-3.9-60-17.5-120-25.7-180s-10.8-120-12.2-150l-1.3-30h128v30 150 180 180 180 150 30z" fill="#808"/>
			<path id="path2" d="m72.04 900-5.7-30c-5.6-30-17-90-21.3-150s-1.7-120 1.2-180c2.8-60 5.8-120 3.6-180-2.1-60-9.5-120-8.3-180s10.8-120 15.7-150l4.8-30h77v30 150 180 180 180 150 30z" fill="#9a5021"/>
			<path id="path3" d="m76.04 900-0.3-30c-0.4-30-1-90 5.3-150s19.7-120 22.2-180-5.9-120-12.7-180-12.2-120-11.2-180 8.4-120 12-150l3.7-30h44v30 150 180 180 180 150 30z" fill="#648764"/>
</svg>
