<svg width="1366" height="96" viewBox="0 0 1366 96" fill="none" xmlns="http://www.w3.org/2000/svg">
<path d="M0 25.5803L32.6322 22.601C65.2644 19.5314 130.529 13.5728 195.49 10.0518C260.602 6.62112 325.26 5.71833 390.372 4.54467C455.333 3.28072 520.598 1.8362 585.559 0.752824C650.671 -0.330557 715.329 -0.872236 780.441 3.64185C845.402 8.15593 910.667 17.7258 975.628 20.1634C1040.74 22.601 1105.4 17.7258 1170.51 13.2117C1235.47 8.6976 1300.74 4.54464 1333.37 2.37788L1366 0.301415V96H1333.37C1300.74 96 1235.47 96 1170.51 96C1105.4 96 1040.74 96 975.628 96C910.667 96 845.402 96 780.441 96C715.329 96 650.671 96 585.559 96C520.598 96 455.333 96 390.372 96C325.26 96 260.602 96 195.49 96C130.529 96 65.2644 96 32.6322 96H0V25.5803Z" fill="#ECE5C7"/>
</svg>
